<svg id="DISEÑO" xmlns="http://www.w3.org/2000/svg" xmlns:xlink="http://www.w3.org/1999/xlink" viewBox="0 0 1321.53 278.66"><defs><clipPath id="clip-path"><rect x="-2316.27" y="-166.22" width="1946.95" height="2122.47" style="fill:none"/></clipPath></defs><title>WEB_2SUNWYPEZ_Landing</title><path d="M74.91,186.58,78.55,192,60,204.42q3.3,5.54,6.75,10.94t6.77,10.46l17.72-11.87,3.65,5.44L77.22,231.26q4,6,8.71,12.8t9.6,13.42l18.83-12.62,3.64,5.44L90.75,268.55q-2.37-4.14-5-8.41t-5.29-8.45q-2.67-4.18-5.27-8.16t-5-7.56q-2.4-3.58-5.09-7.5t-5.53-8q-2.84-4-5.77-8.06t-5.86-7.8Z"/><path d="M150,230.57l-3.28-5.93q-.36,2-.79,4a17.76,17.76,0,0,1-1.31,3.88,15.71,15.71,0,0,1-2.41,3.63,17.45,17.45,0,0,1-4.11,3.32,14.64,14.64,0,0,1-12.88,1.28,20.66,20.66,0,0,1-6.52-4,31,31,0,0,1-6-7.34,29.22,29.22,0,0,1-4.25-11,21.47,21.47,0,0,1,1-10.17,31.93,31.93,0,0,1,5.79-9.87,85.09,85.09,0,0,1,10.14-10.09,73.77,73.77,0,0,0-6.41-9.2,23.66,23.66,0,0,0-5.39-4.94,7.91,7.91,0,0,0-4.72-1.36,9.93,9.93,0,0,0-4.42,1.51,15,15,0,0,0-3.47,2.92,26.06,26.06,0,0,0-2.83,3.91,43.1,43.1,0,0,0-2.37,4.62q-1.09,2.47-2,5l-5.64-9.28q1.55-2,3-3.74t3-3.35a43.16,43.16,0,0,1,3.24-3,30.62,30.62,0,0,1,3.8-2.7,25,25,0,0,1,8-3.31,14.15,14.15,0,0,1,7.42.47,19.07,19.07,0,0,1,7,4.52,44,44,0,0,1,6.75,8.8q.32.53,1.05,1.79l1.72,2.95,2.13,3.62,2.25,3.81,2.09,3.55q1,1.67,1.65,2.77,1.54,2.54,3.52,5.69t4.28,6.67q2.3,3.52,4.85,7.34t5.26,7.74Zm-7.36-13.41q-2.82-5-6.11-10.6t-7.65-12.81a41.43,41.43,0,0,0-8.38,8.3,18.7,18.7,0,0,0-3.36,7.51,14.65,14.65,0,0,0,.5,7.07,33,33,0,0,0,3.26,7,29,29,0,0,0,3.86,5.12,15.63,15.63,0,0,0,4.12,3.16,9.34,9.34,0,0,0,4.07,1.1,7,7,0,0,0,3.81-1.07,9.7,9.7,0,0,0,3.16-2.94,13.21,13.21,0,0,0,1.66-3.63,20.52,20.52,0,0,0,.72-4Q142.43,219.24,142.61,217.16Z"/><path d="M176.7,209.74a14.13,14.13,0,0,0,3.52-2.73,10.14,10.14,0,0,0,2.27-3.83,11.28,11.28,0,0,0,.43-4.8,15.62,15.62,0,0,0-2-5.71,13,13,0,0,0-3.75-4.33,22.73,22.73,0,0,0-5.14-2.8,41.19,41.19,0,0,0-6.12-1.85q-3.27-.73-6.65-1.43t-6.74-1.57a37.56,37.56,0,0,1-6.35-2.27,24.9,24.9,0,0,1-5.53-3.51,18.29,18.29,0,0,1-4.28-5.31,18.69,18.69,0,0,1-2.59-8.8,17.23,17.23,0,0,1,1.56-7.52,19.59,19.59,0,0,1,4.35-6,28.36,28.36,0,0,1,5.8-4.27,41,41,0,0,1,6.44-2.86q3.25-1.11,6.32-2l5.36,9.77q-2.3-.46-4.29-.78a24.11,24.11,0,0,0-3.81-.31,15.91,15.91,0,0,0-3.52.4,13.13,13.13,0,0,0-3.37,1.31,15.16,15.16,0,0,0-3.59,2.7,9.85,9.85,0,0,0-2.24,3.49,9.7,9.7,0,0,0-.52,4.18,12,12,0,0,0,1.56,4.76,13.29,13.29,0,0,0,5.3,5.36,32.61,32.61,0,0,0,7.56,3q4.18,1.1,8.79,1.95a64.73,64.73,0,0,1,9,2.34,33.59,33.59,0,0,1,8.16,4.05,20.09,20.09,0,0,1,6.27,7.13,24.17,24.17,0,0,1,2.54,6.49,18.13,18.13,0,0,1,.37,5.74,16.12,16.12,0,0,1-1.33,5,19,19,0,0,1-2.61,4.21,22,22,0,0,1-3.52,3.43,29.87,29.87,0,0,1-4,2.62q-2.41,1.32-4.51,2.25t-4,1.57q-1.92.64-3.64,1t-3.42.69l-5.52-10.06q2.3.59,4.51,1a25.28,25.28,0,0,0,4.36.45,17.83,17.83,0,0,0,4.25-.45A16.54,16.54,0,0,0,176.7,209.74Z"/><path d="M208.38,200a35.54,35.54,0,0,1-4.13,1.76q-1.87.64-2.37.76l-3.52-7.13a8.36,8.36,0,0,0,1-.16q.65-.13,1.5-.37t1.82-.55a14.3,14.3,0,0,0,1.82-.74,6.61,6.61,0,0,0,3.69-4.1,18.58,18.58,0,0,0,.25-7.15q-.31-2.4-.66-5t-.76-5.46q-3.21-3.22-6.83-6.68t-7.34-7l-7.43-6.95q-3.7-3.45-7.19-6.66t-6.6-6l-5.61-5.1,9.34-4.61q2.86,3.39,6.7,7.49t7.92,8.26q4.08,4.16,8,8.11t7.11,7.07q-1-6.29-2.14-12.55t-2.16-11.83q-1.06-5.56-2-10.06t-1.63-7.28l9.33-4.61q.77,5.74,1.79,13.35t2.29,16.45q1.27,8.83,2.79,18.48t3.25,19.34q1.22,6.89-.66,11.5T208.38,200Z"/><path d="M231.21,102.3l35.38-14.78,2.52,6-13.17,5.5q2.76,7.77,5.83,15.4t5.83,14.25q1.66,4,3.55,8.35t3.9,8.9q2,4.53,4.1,9.09t4.18,8.84l-9.66,4q-1.52-4.52-3.27-9.22t-3.56-9.31q-1.81-4.61-3.59-9T259.81,132q-2.76-6.61-6.06-14.15t-6.83-15l-13.17,5.5Z"/><path d="M329.4,105.26a75.86,75.86,0,0,1,4.43,17.42,39,39,0,0,1-.52,13.43,21.45,21.45,0,0,1-4.73,9.46,20.55,20.55,0,0,1-17.92,6.58,21.46,21.46,0,0,1-9.72-4.15,39.41,39.41,0,0,1-9.12-9.89A74.67,74.67,0,0,1,283.9,122a74.41,74.41,0,0,1-4.39-17.38A39.81,39.81,0,0,1,280,91.12a21.39,21.39,0,0,1,4.72-9.49,20.55,20.55,0,0,1,17.92-6.58,21.4,21.4,0,0,1,9.73,4.18,39.36,39.36,0,0,1,9.1,9.92A75.61,75.61,0,0,1,329.4,105.26Zm-9,3.32A86,86,0,0,0,314.18,95a40.41,40.41,0,0,0-6.45-8.63,15.6,15.6,0,0,0-6.4-4,9.58,9.58,0,0,0-10.82,4,15.79,15.79,0,0,0-2.3,7.23,39.53,39.53,0,0,0,.64,10.76,85.83,85.83,0,0,0,4.08,14.36,86.11,86.11,0,0,0,6.2,13.64,39,39,0,0,0,6.47,8.6,15.8,15.8,0,0,0,6.42,4,9.57,9.57,0,0,0,10.82-4,15.6,15.6,0,0,0,2.28-7.19,39.89,39.89,0,0,0-.66-10.73A86.35,86.35,0,0,0,320.36,108.58Z"/><path d="M368.65,92.94a70.36,70.36,0,0,0,5.18,13.33,35.86,35.86,0,0,0,6.4,9,17.79,17.79,0,0,0,7.24,4.53,13.35,13.35,0,0,0,7.72,0,14.17,14.17,0,0,0,4-1.8,16.6,16.6,0,0,0,2.88-2.43,21.28,21.28,0,0,0,2.2-2.79q1-1.47,1.92-2.85l3.11,10.81q-2.8,1.62-5.7,3a47.37,47.37,0,0,1-6.62,2.4,25.63,25.63,0,0,1-11.32.75,23.79,23.79,0,0,1-10.49-4.58,36.61,36.61,0,0,1-9-10.28,65.49,65.49,0,0,1-6.89-16.34,62.34,62.34,0,0,1-2.75-17.53,37.46,37.46,0,0,1,2.33-13.54,24.33,24.33,0,0,1,6.48-9.47A24.81,24.81,0,0,1,375,49.8a47.33,47.33,0,0,1,6.88-1.49q3.17-.42,6.4-.53l3.11,10.81q-1.53-.67-3.14-1.4A21.34,21.34,0,0,0,385,56a16.69,16.69,0,0,0-3.73-.53,14.2,14.2,0,0,0-4.37.62,13.37,13.37,0,0,0-6.53,4.12,17.81,17.81,0,0,0-3.73,7.69,35.87,35.87,0,0,0-.65,11A70.35,70.35,0,0,0,368.65,92.94Z"/><path d="M444.33,112.73,443,106.08q-1,1.78-2,3.55a17.79,17.79,0,0,1-2.44,3.28,15.74,15.74,0,0,1-3.41,2.71,17.43,17.43,0,0,1-4.93,1.89,14.64,14.64,0,0,1-12.65-2.75,20.64,20.64,0,0,1-5-5.81,31,31,0,0,1-3.42-8.82,29.21,29.21,0,0,1-.66-11.75A21.47,21.47,0,0,1,412.64,79a31.94,31.94,0,0,1,8.55-7.61,85.05,85.05,0,0,1,12.76-6.48,73.89,73.89,0,0,0-3.27-10.73,23.71,23.71,0,0,0-3.61-6.36A7.91,7.91,0,0,0,423,45.08a10,10,0,0,0-4.67.07,15,15,0,0,0-4.2,1.72,26,26,0,0,0-3.9,2.85,43.24,43.24,0,0,0-3.68,3.66q-1.8,2-3.48,4.13L400.57,47q2.08-1.41,4-2.64T408.41,42a43.92,43.92,0,0,1,4-1.87,30.69,30.69,0,0,1,4.44-1.4,24.94,24.94,0,0,1,8.67-.68,14.15,14.15,0,0,1,6.92,2.73,19,19,0,0,1,5.27,6.46,44,44,0,0,1,3.72,10.45q.14.6.45,2t.74,3.34l.91,4.1,1,4.32.9,4q.42,1.88.72,3.14.69,2.89,1.6,6.49t2,7.66q1.11,4.05,2.36,8.47t2.62,9Zm-2.88-15q-1.16-5.59-2.55-12t-3.34-14.54A41.39,41.39,0,0,0,425,76.53a18.68,18.68,0,0,0-5.51,6.11,14.66,14.66,0,0,0-1.7,6.88,33,33,0,0,0,1,7.66,29,29,0,0,0,2.1,6.06,15.7,15.7,0,0,0,2.94,4.28,9.33,9.33,0,0,0,3.54,2.3,7,7,0,0,0,3.95.16,9.72,9.72,0,0,0,3.91-1.82,13.26,13.26,0,0,0,2.7-2.94,20.56,20.56,0,0,0,1.93-3.62Q440.64,99.63,441.45,97.71Z"/><path d="M481.46,35.75a36.42,36.42,0,0,0-12.25,4.48,15.43,15.43,0,0,0-6.72,7.69q1.74,10.72,3.83,21.55,1,5.11,1.94,9.72t1.92,9q1,4.43,2.06,8.87t2.31,9.27l-10.17,2q-.67-4.94-1.35-9.46t-1.4-9q-.73-4.48-1.56-9.11T458.24,71q-1-5.11-2-9.91t-2-9.47q-1-4.67-2.15-9.33t-2.32-9.5l10.22-2q.34,2.62.59,4.67t.64,4.61a28.2,28.2,0,0,1,3.55-4.79,39,39,0,0,1,4.7-4.42,35.43,35.43,0,0,1,5.15-3.42,17.42,17.42,0,0,1,4.89-1.86Z"/><path d="M520,29.64a36.42,36.42,0,0,0-12.4,4,15.45,15.45,0,0,0-7,7.44Q502,51.9,503.67,62.79q.81,5.14,1.59,9.78t1.6,9.1q.81,4.46,1.74,8.93t2,9.35l-10.23,1.6q-.5-5-1-9.5t-1.08-9q-.57-4.5-1.24-9.16t-1.48-9.8q-.81-5.14-1.62-10t-1.69-9.54q-.88-4.71-1.81-9.4t-2-9.58L498.72,24q.24,2.63.42,4.69t.47,4.63a28.25,28.25,0,0,1,3.72-4.66,38.89,38.89,0,0,1,4.86-4.25,35.47,35.47,0,0,1,5.27-3.23,17.41,17.41,0,0,1,4.95-1.68Z"/><path d="M540.13,97.12a35.58,35.58,0,0,1-4.48.27q-2,0-2.49-.08l-.92-7.9a8.37,8.37,0,0,0,.95.17c.44.06,1,.12,1.54.16s1.22.08,1.9.09a14,14,0,0,0,2-.09,6.61,6.61,0,0,0,4.85-2.62,18.58,18.58,0,0,0,2.64-6.65q.51-2.37,1.06-4.94t1.12-5.4q-1.94-4.11-4.18-8.59t-4.57-9q-2.33-4.55-4.66-9t-4.53-8.69q-2.21-4.19-4.19-7.91l-3.56-6.69L532.92,19q1.55,4.16,3.79,9.31t4.68,10.45q2.45,5.3,4.83,10.34t4.32,9q1.13-6.27,2.21-12.54t1.95-11.86q.87-5.59,1.5-10.15t.92-7.4L567.45,15q-1.2,5.66-2.81,13.17t-3.38,16.26q-1.77,8.75-3.59,18.34t-3.45,19.31Q553,89,549.73,92.68T540.13,97.12Z"/><path d="M616,83.87a14.13,14.13,0,0,0,4.35-.93A10.14,10.14,0,0,0,624,80.48a11.29,11.29,0,0,0,2.48-4.14,15.61,15.61,0,0,0,.69-6,13,13,0,0,0-1.49-5.53,22.74,22.74,0,0,0-3.41-4.75,41.14,41.14,0,0,0-4.71-4.32q-2.63-2.08-5.37-4.18t-5.38-4.34a37.67,37.67,0,0,1-4.74-4.8,24.88,24.88,0,0,1-3.46-5.56,18.28,18.28,0,0,1-1.55-6.65,18.68,18.68,0,0,1,1.49-9,17.22,17.22,0,0,1,4.67-6.1,19.57,19.57,0,0,1,6.52-3.51,28.43,28.43,0,0,1,7.08-1.32,41,41,0,0,1,7,.22q3.41.41,6.58.92L631,22.49q-1.87-1.42-3.53-2.56a24.14,24.14,0,0,0-3.3-1.93,15.91,15.91,0,0,0-3.34-1.17,13.14,13.14,0,0,0-3.6-.29,15.15,15.15,0,0,0-4.41.87,9.82,9.82,0,0,0-3.53,2.17,9.67,9.67,0,0,0-2.28,3.54,12,12,0,0,0-.67,5,13.28,13.28,0,0,0,2.45,7.13,32.66,32.66,0,0,0,5.52,6q3.28,2.8,7.07,5.57a64.92,64.92,0,0,1,7.1,6A33.67,33.67,0,0,1,634.12,60a20.11,20.11,0,0,1,2.55,9.14,24.24,24.24,0,0,1-.53,7A18.17,18.17,0,0,1,634,81.39a16.14,16.14,0,0,1-3.36,3.9,19,19,0,0,1-4.18,2.66,22,22,0,0,1-4.66,1.56,29.91,29.91,0,0,1-4.7.64q-2.74.14-5,.07t-4.31-.34q-2-.26-3.73-.65t-3.38-.86L600,76.91q1.82,1.53,3.62,2.87a25.36,25.36,0,0,0,3.74,2.3,17.85,17.85,0,0,0,4,1.44A16.57,16.57,0,0,0,616,83.87Z"/><path d="M654.21,47q0,4.09.09,7.81t.15,7q.1,3.28.26,6t.43,4.65q.71,4.87,2.78,7a7,7,0,0,0,5.31,2.17,8.69,8.69,0,0,0,3.81-.94,17.53,17.53,0,0,0,3.79-2.51,28.68,28.68,0,0,0,3.48-3.57,35.82,35.82,0,0,0,3-4.13q.37-11.08.4-22.45,0-5.21,0-9.91t-.17-9.24q-.13-4.53-.31-9.1t-.45-9.55l10.36,0q-.3,5-.5,9.54t-.36,9.1q-.15,4.53-.22,9.24t-.09,9.91q0,5.2,0,10.1t.17,9.68q.12,4.79.31,9.57t.45,9.77l-10.41,0q.12-2.18.24-4.34t.24-4.28a48.43,48.43,0,0,1-3.45,3.82,23.79,23.79,0,0,1-4,3.18,20.11,20.11,0,0,1-4.57,2.17,16.64,16.64,0,0,1-5.29.8,11.84,11.84,0,0,1-10.31-5.32q-3.65-5.3-3.62-15.77,0-2.58,0-5.51t.1-5.76q.06-2.83.1-5.23T646,47q0-5.21,0-9.74t-.14-8.9q-.1-4.37-.28-8.79t-.45-9.4l10.3,0q-.3,5-.53,9.4t-.39,8.79q-.15,4.37-.22,8.9T654.21,47Z"/><path d="M731.59,51.8q.26-8.73.3-15.26a75.35,75.35,0,0,0-.6-10.84,16,16,0,0,0-2.1-6.51A5.06,5.06,0,0,0,725,16.89a8.59,8.59,0,0,0-3.54.8,23.66,23.66,0,0,0-4.28,2.36,34.76,34.76,0,0,0-4.24,3.43,24.35,24.35,0,0,0-3.42,3.94q-.82,11.06-1.31,22.41-.22,5.2-.37,9.9T707.59,69q-.09,4.53-.06,9.1t.09,9.56l-10.35-.45q.49-5,.89-9.51t.73-9.07q.33-4.52.59-9.22t.48-9.9q.23-5.2.38-10.1t.22-9.68q.07-4.79.08-9.58t-.05-9.78l10.4.45-.88,8.65A34.57,34.57,0,0,1,714,15.77a33.16,33.16,0,0,1,4.45-3,22.59,22.59,0,0,1,4.68-2,14.2,14.2,0,0,1,4.68-.61,11.84,11.84,0,0,1,10.09,5.73q3.43,5.44,3,15.9-.11,2.57-.27,5.51T740.31,43q-.18,2.82-.31,5.23t-.2,3.91q-.22,5.2-.36,9.73t-.22,8.9q-.08,4.37-.07,8.79t.07,9.42l-10.29-.45q.49-5,.91-9.37t.77-8.76q.36-4.35.58-8.88T731.59,51.8Z"/><path d="M762.78,86.15a14.14,14.14,0,0,0,4.44-.31,10.15,10.15,0,0,0,4-1.92,11.27,11.27,0,0,0,3-3.75,15.59,15.59,0,0,0,1.53-5.85,13,13,0,0,0-.7-5.68,22.78,22.78,0,0,0-2.71-5.19,41.19,41.19,0,0,0-4.06-4.94q-2.31-2.43-4.74-4.89t-4.72-5.06a37.68,37.68,0,0,1-4-5.42,24.84,24.84,0,0,1-2.64-6,18.27,18.27,0,0,1-.6-6.8,18.69,18.69,0,0,1,2.75-8.75,17.22,17.22,0,0,1,5.48-5.38,19.56,19.56,0,0,1,6.94-2.56,28.39,28.39,0,0,1,7.19-.31,41.1,41.1,0,0,1,6.95,1.21q3.32.89,6.38,1.83l-1,11.1q-1.65-1.67-3.13-3a24.15,24.15,0,0,0-3-2.37,16,16,0,0,0-3.14-1.63,13,13,0,0,0-3.53-.79,15.08,15.08,0,0,0-4.49.25,9.85,9.85,0,0,0-3.8,1.66,9.67,9.67,0,0,0-2.76,3.18,12,12,0,0,0-1.36,4.82A13.28,13.28,0,0,0,762.55,37a32.64,32.64,0,0,0,4.63,6.68q2.86,3.23,6.22,6.51a64.76,64.76,0,0,1,6.18,7A33.57,33.57,0,0,1,784.11,65a20.09,20.09,0,0,1,1.24,9.41,24.18,24.18,0,0,1-1.51,6.81,18.14,18.14,0,0,1-2.89,5,16.11,16.11,0,0,1-3.87,3.39,19,19,0,0,1-4.51,2,22,22,0,0,1-4.83.89,29.78,29.78,0,0,1-4.75,0q-2.73-.24-5-.64t-4.22-.94q-1.95-.54-3.6-1.16T747,88.45L748,77q1.58,1.77,3.19,3.35a25.37,25.37,0,0,0,3.37,2.8,17.82,17.82,0,0,0,3.78,2A16.58,16.58,0,0,0,762.78,86.15Z"/><path d="M804.16,56.67a70.37,70.37,0,0,0-.6,14.29,35.85,35.85,0,0,0,2.27,10.78,17.79,17.79,0,0,0,4.82,7.05,13.37,13.37,0,0,0,7.07,3.11,14.19,14.19,0,0,0,4.41,0,16.62,16.62,0,0,0,3.62-1.07,21.35,21.35,0,0,0,3.13-1.67q1.48-1,2.9-1.84l-1.48,11.15q-3.21.36-6.41.42a47.57,47.57,0,0,1-7-.45,25.64,25.64,0,0,1-10.67-3.85,23.82,23.82,0,0,1-7.78-8.4,36.62,36.62,0,0,1-4.14-13,65.46,65.46,0,0,1,.24-17.73A62.38,62.38,0,0,1,799,38.23a37.47,37.47,0,0,1,7.57-11.47,24.32,24.32,0,0,1,9.73-6.08,24.82,24.82,0,0,1,11-1,47.45,47.45,0,0,1,6.9,1.4q3.07.89,6.08,2.08l-1.48,11.15q-1.14-1.22-2.32-2.54a21.38,21.38,0,0,0-2.58-2.43,16.74,16.74,0,0,0-3.21-2,14.21,14.21,0,0,0-4.25-1.19,13.37,13.37,0,0,0-7.64,1.16,17.81,17.81,0,0,0-6.5,5.54,35.91,35.91,0,0,0-5,9.81A70.33,70.33,0,0,0,804.16,56.67Z"/><path d="M879.51,38.45a36.43,36.43,0,0,0-13-.18,15.44,15.44,0,0,0-9,4.79q-2.2,10.64-4.1,21.5-.9,5.13-1.65,9.77t-1.42,9.13q-.67,4.49-1.24,9T847.9,102l-10.2-1.78q1.13-4.86,2.11-9.32t1.9-8.9q.92-4.44,1.78-9.06t1.76-9.75q.9-5.13,1.68-10t1.47-9.57q.69-4.74,1.32-9.49t1.21-9.7l10.26,1.79q-.62,2.56-1.11,4.58t-1,4.53a28.2,28.2,0,0,1,5-3.21,39,39,0,0,1,6-2.45,35.42,35.42,0,0,1,6-1.36,17.4,17.4,0,0,1,5.23,0Z"/><path d="M894.81,106a15,15,0,0,0,4.48.33,19.69,19.69,0,0,0,3.91-.74,20.21,20.21,0,0,0,3.44-1.38l3.09-1.6-2.31,10.78q-1.48,0-3,0c-1,0-2.13,0-3.36-.09s-2.58-.19-4.07-.36-3.19-.45-5.08-.86a20.62,20.62,0,0,1-9.75-4.87A23.42,23.42,0,0,1,876,97.9a40.14,40.14,0,0,1-2.28-13.26A72.82,72.82,0,0,1,875.55,68a85.32,85.32,0,0,1,4.86-15.7,45.08,45.08,0,0,1,6.85-11.5,23,23,0,0,1,8.56-6.52,16.45,16.45,0,0,1,10.05-.82,17.62,17.62,0,0,1,9,4.58,19.48,19.48,0,0,1,4.93,8.79,40.5,40.5,0,0,1,1.17,12.7,101.56,101.56,0,0,1-2.29,16.4l-.43,2-33.06-7.09a112.59,112.59,0,0,0-1.76,15,35.17,35.17,0,0,0,.94,10.45,13,13,0,0,0,3.79,6.51A14.59,14.59,0,0,0,894.81,106Zm15.32-36.45q.57-3.2,1.06-6.53t.68-6.5a44.14,44.14,0,0,0,0-6,18.59,18.59,0,0,0-1.06-5.09,10.25,10.25,0,0,0-2.4-3.78,8,8,0,0,0-4-2.07,7.17,7.17,0,0,0-6,1.24,18.61,18.61,0,0,0-4.85,5.54,46.61,46.61,0,0,0-3.89,8.38q-1.71,4.78-3.07,9.76Z"/><path d="M943.61,118a15,15,0,0,0,4.46.55A19.63,19.63,0,0,0,952,118a20.1,20.1,0,0,0,3.51-1.21l3.17-1.44L955.84,126q-1.48-.1-3-.16t-3.35-.26q-1.83-.2-4.05-.56t-5-1.11a20.63,20.63,0,0,1-9.5-5.34,23.43,23.43,0,0,1-5.66-9.62,40.13,40.13,0,0,1-1.63-13.35,72.81,72.81,0,0,1,2.61-16.54,85.18,85.18,0,0,1,5.62-15.45,45,45,0,0,1,7.4-11.15,23,23,0,0,1,8.87-6.09,16.44,16.44,0,0,1,10.08-.33,17.59,17.59,0,0,1,8.71,5,19.49,19.49,0,0,1,4.49,9A40.51,40.51,0,0,1,972,72.84a101.3,101.3,0,0,1-3.09,16.27l-.53,2L935.66,82.4a112.29,112.29,0,0,0-2.5,14.92,35.09,35.09,0,0,0,.42,10.48,13,13,0,0,0,3.46,6.69A14.62,14.62,0,0,0,943.61,118ZM960.7,82.35q.73-3.17,1.38-6.47t1-6.45a44.13,44.13,0,0,0,.27-6,18.61,18.61,0,0,0-.8-5.14,10.24,10.24,0,0,0-2.21-3.89,8,8,0,0,0-3.92-2.26,7.17,7.17,0,0,0-6,.94,18.63,18.63,0,0,0-5.12,5.3A46.7,46.7,0,0,0,941,66.56q-1.95,4.69-3.54,9.6Z"/><path d="M1008.81,104.47q2.56-8.35,4.32-14.63a75.51,75.51,0,0,0,2.29-10.61,16,16,0,0,0-.31-6.83,5.06,5.06,0,0,0-3.45-3.34,8.61,8.61,0,0,0-3.62-.16,23.38,23.38,0,0,0-4.75,1.15,34.54,34.54,0,0,0-5,2.19,24.23,24.23,0,0,0-4.34,2.9q-3.71,10.45-7.18,21.27-1.59,5-3,9.45t-2.66,8.85q-1.28,4.35-2.46,8.76t-2.44,9.24l-9.86-3.17q1.79-4.66,3.37-8.94t3.1-8.56q1.52-4.27,3-8.73t3.08-9.42q1.59-5,3-9.64T984.75,75q1.33-4.6,2.61-9.22t2.53-9.45l9.91,3.18-3.13,8.11a34.56,34.56,0,0,1,4.74-2.5,33.31,33.31,0,0,1,5.09-1.75,22.61,22.61,0,0,1,5-.7,14.15,14.15,0,0,1,4.67.65,11.85,11.85,0,0,1,8.22,8.19q1.87,6.16-1.33,16.12-.79,2.45-1.71,5.24t-1.84,5.46q-.92,2.68-1.68,5t-1.23,3.72q-1.59,5-2.92,9.29t-2.56,8.53q-1.23,4.19-2.39,8.46t-2.42,9.1l-9.81-3.15q1.79-4.66,3.35-8.8t3.06-8.25q1.49-4.11,2.91-8.42T1008.81,104.47Z"/><path d="M1088.48,106.51q-2.51,4.29-5.42,9.36l-5.94,10.32-6,10.47q-3,5.21-5.67,9.89t-4.84,8.54q-2.18,3.86-3.55,6.44l-12.26-5.08q1-4.12,2.37-9.44t2.84-11.52q1.51-6.19,3.07-13t3.08-13.93q1.52-7.1,2.92-14.27t2.62-14.06l10,4.14q-4.46,16.33-8.65,32.2t-8,31.92l.72.3q4.3-7,8.47-14.06t8.26-14.24q4.1-7.18,8.19-14.42t8.27-14.54l10.65,4.41q-4.5,16.26-8.92,32.12t-8.19,31.81l.72.3q8.67-14,17-28.21T1116.82,103l10,4.14q-4,5.73-8.1,11.79t-8,12.15q-3.95,6.09-7.68,12t-7.05,11.38l-6.17,10.14q-2.86,4.7-5,8.36l-12.26-5.08q.85-2.8,2-7.06t2.62-9.46q1.43-5.2,3-11t3.14-11.67q1.58-5.86,3.07-11.51t2.81-10.44Z"/><path d="M1144.88,116.18q-2.33,4.17-4.62,8.59t-4.49,8.84q-2.2,4.41-4.27,8.7t-3.9,8.18q-1.83,3.9-3.8,8.23t-4,8.86q-2,4.53-4,9.14t-3.74,9l-9.48-4.45q2.33-4.16,4.63-8.62t4.51-8.89q2.21-4.44,4.28-8.72t3.9-8.19q1.83-3.9,3.8-8.23t4-8.84q2-4.51,3.93-9.1t3.66-9Z"/><path d="M1173.72,130.42a21,21,0,0,1,6.75,5.24,16.46,16.46,0,0,1,3.43,7,21,21,0,0,1,0,8.44,35.19,35.19,0,0,1-3.38,9.52,31.54,31.54,0,0,1-2.73,4.36,27.49,27.49,0,0,1-8.32,7.44,18.25,18.25,0,0,1-5.36,2.07,18,18,0,0,1-6,.22,19.82,19.82,0,0,1-6.55-2.12l-7.68-3.92q-3.16,6.43-6.38,13.18t-6.08,13.33l-9.32-4.76q2.46-4.08,4.92-8.46t4.81-8.73q2.35-4.36,4.57-8.57t4.17-8.05q2-3.84,4.07-8.1t4.25-8.7q2.14-4.44,4.23-9t4-8.92Zm-10.43,1.71q-4.12,7.2-8,14.52t-7.2,13.8l-1.37,2.69,7.68,3.92a8.73,8.73,0,0,0,9.08-.55q4.59-2.84,8.41-10.32t3.59-12.81a8.67,8.67,0,0,0-5.09-7.63Z"/><path d="M1187.21,219.56a15,15,0,0,0,4.17,1.67,19.67,19.67,0,0,0,3.95.48,20.11,20.11,0,0,0,3.7-.27l3.43-.59-5.47,9.57q-1.4-.48-2.86-.92t-3.17-1.1q-1.72-.66-3.77-1.58t-4.58-2.36a20.62,20.62,0,0,1-7.82-7.59,23.41,23.41,0,0,1-3-10.75,40.13,40.13,0,0,1,1.84-13.32,72.84,72.84,0,0,1,6.76-15.32,85.07,85.07,0,0,1,9.39-13.5,45.13,45.13,0,0,1,10-8.88,23,23,0,0,1,10.13-3.62,16.46,16.46,0,0,1,9.83,2.26,17.61,17.61,0,0,1,7.14,7.08,19.48,19.48,0,0,1,2,9.87,40.53,40.53,0,0,1-2.73,12.46,101.25,101.25,0,0,1-7.15,14.93l-1,1.8-29.36-16.77a112.27,112.27,0,0,0-6.23,13.78,35.15,35.15,0,0,0-2.27,10.24,13,13,0,0,0,1.64,7.35A14.61,14.61,0,0,0,1187.21,219.56Zm25.64-30.09q1.51-2.87,3-5.9t2.61-6a44.22,44.22,0,0,0,1.8-5.74,18.63,18.63,0,0,0,.54-5.17,10.24,10.24,0,0,0-1.14-4.32,8,8,0,0,0-3.21-3.19,7.16,7.16,0,0,0-6.06-.62,18.61,18.61,0,0,0-6.3,3.81,46.51,46.51,0,0,0-6.24,6.81q-3.08,4-5.88,8.37Z"/><path d="M1219.87,239.52a14.14,14.14,0,0,0,4.09,1.76,10.14,10.14,0,0,0,4.45.13,11.26,11.26,0,0,0,4.41-1.95,15.61,15.61,0,0,0,4-4.5,13.07,13.07,0,0,0,2-5.37,22.78,22.78,0,0,0,0-5.85,41.27,41.27,0,0,0-1.35-6.25q-.95-3.21-2-6.51t-1.88-6.66a37.53,37.53,0,0,1-1.09-6.65,24.94,24.94,0,0,1,.39-6.54,18.28,18.28,0,0,1,2.57-6.32,18.68,18.68,0,0,1,6.44-6.52,17.21,17.21,0,0,1,7.34-2.28,19.57,19.57,0,0,1,7.34.9,28.36,28.36,0,0,1,6.54,3,41,41,0,0,1,5.62,4.25q2.55,2.31,4.84,4.55l-6,9.41q-.71-2.23-1.4-4.13a24.16,24.16,0,0,0-1.57-3.48,16,16,0,0,0-2-2.89,13.09,13.09,0,0,0-2.77-2.32,15.12,15.12,0,0,0-4.1-1.84,9.86,9.86,0,0,0-4.14-.27,9.69,9.69,0,0,0-3.91,1.57,12,12,0,0,0-3.41,3.67,13.29,13.29,0,0,0-2.12,7.23,32.67,32.67,0,0,0,1.06,8.06q1.06,4.18,2.55,8.64a64.8,64.8,0,0,1,2.31,9,33.62,33.62,0,0,1,.4,9.1,20.12,20.12,0,0,1-3.2,8.94,24.2,24.2,0,0,1-4.45,5.36,18.12,18.12,0,0,1-4.84,3.1,16.11,16.11,0,0,1-5,1.25,18.94,18.94,0,0,1-4.94-.25,22,22,0,0,1-4.7-1.42,29.66,29.66,0,0,1-4.21-2.2q-2.32-1.47-4.15-2.86t-3.32-2.76q-1.48-1.37-2.67-2.68t-2.26-2.66l6.13-9.7q.6,2.3,1.3,4.43a25.2,25.2,0,0,0,1.72,4,17.81,17.81,0,0,0,2.45,3.51A16.59,16.59,0,0,0,1219.87,239.52Z"/><g style="clip-path:url(#clip-path)"><image width="6205" height="4137" transform="translate(-2384.29 -510.2) scale(0.6)" xlink:href="../RECURSOS/PLAYA-Simulacion en Bolsa.jpg"/></g></svg>