<svg id="DISEÑO" xmlns="http://www.w3.org/2000/svg" xmlns:xlink="http://www.w3.org/1999/xlink" viewBox="0 0 1321.53 278.66"><defs><clipPath id="clip-path"><rect x="-2316.27" y="213.67" width="1946.95" height="2122.47" style="fill:none"/></clipPath></defs><title>WEB_2SUNWYPEZ_Landing</title><g style="clip-path:url(#clip-path)"><image width="6205" height="4137" transform="translate(-2384.29 -130.32) scale(0.6)" xlink:href="../RECURSOS/PLAYA-Simulacion en Bolsa.jpg"/></g><path d="M43.87,152l33.48-15.8,2.7,5.72-12.46,5.88q3,7.37,6.29,14.6t6.25,13.49q1.78,3.76,3.79,7.89t4.15,8.41q2.14,4.28,4.35,8.58t4.42,8.34l-9.14,4.31q-1.67-4.29-3.56-8.75t-3.84-8.82q-1.94-4.37-3.86-8.55t-3.69-7.94q-3-6.25-6.47-13.38T59,151.8l-12.46,5.88Z"/><path d="M138.26,150.11a73.12,73.12,0,0,1,5.24,16.55,37.59,37.59,0,0,1,.24,13,20.71,20.71,0,0,1-4,9.38,19.84,19.84,0,0,1-16.9,7.34,20.69,20.69,0,0,1-9.6-3.46,38.06,38.06,0,0,1-9.34-9,72.18,72.18,0,0,1-8.53-15.12,71.85,71.85,0,0,1-5.19-16.51,38.41,38.41,0,0,1-.23-13,20.63,20.63,0,0,1,4-9.4,19.84,19.84,0,0,1,16.9-7.34,20.65,20.65,0,0,1,9.61,3.49,38,38,0,0,1,9.32,9.06A72.9,72.9,0,0,1,138.26,150.11Zm-8.52,3.7A83.13,83.13,0,0,0,123,141.05a39,39,0,0,0-6.7-8,15,15,0,0,0-6.39-3.53A9.24,9.24,0,0,0,99.72,134a15.24,15.24,0,0,0-1.81,7.09,38.21,38.21,0,0,0,1.22,10.34A82.84,82.84,0,0,0,103.86,165a83.19,83.19,0,0,0,6.74,12.8,37.61,37.61,0,0,0,6.71,7.93,15.25,15.25,0,0,0,6.41,3.49,9.24,9.24,0,0,0,10.21-4.43,15.07,15.07,0,0,0,1.8-7.05,38.48,38.48,0,0,0-1.23-10.3A83.6,83.6,0,0,0,129.73,153.81Z"/><path d="M186.39,171l-2.13-6.19q-.68,1.83-1.41,3.66a17.11,17.11,0,0,1-1.89,3.47,15.14,15.14,0,0,1-2.9,3,16.87,16.87,0,0,1-4.46,2.47,14.12,14.12,0,0,1-12.46-.93,19.92,19.92,0,0,1-5.54-4.89,29.91,29.91,0,0,1-4.45-8,28.24,28.24,0,0,1-2.21-11.15,20.74,20.74,0,0,1,2.64-9.5,30.83,30.83,0,0,1,7.15-8.42,82.22,82.22,0,0,1,11.33-7.91,71.09,71.09,0,0,0-4.56-9.82,22.84,22.84,0,0,0-4.3-5.6,7.65,7.65,0,0,0-4.26-2.08,9.62,9.62,0,0,0-4.46.7,14.42,14.42,0,0,0-3.78,2.2,25.19,25.19,0,0,0-3.34,3.25,42.12,42.12,0,0,0-3,4q-1.45,2.16-2.77,4.42L135.74,114q1.8-1.63,3.45-3.06t3.39-2.69a42.75,42.75,0,0,1,3.58-2.33,29.64,29.64,0,0,1,4.06-1.93,24.11,24.11,0,0,1,8.2-1.81,13.7,13.7,0,0,1,7,1.68,18.44,18.44,0,0,1,5.91,5.47,42.5,42.5,0,0,1,5,9.49q.21.55.7,1.87t1.15,3.09l1.42,3.79,1.5,4,1.4,3.72q.65,1.75,1.11,2.9,1,2.67,2.4,6t3,7.05q1.6,3.73,3.39,7.79t3.71,8.24Zm-4.77-14q-1.86-5.19-4-11.1t-5.14-13.45a40,40,0,0,0-9.35,6.5,18,18,0,0,0-4.45,6.58,14.15,14.15,0,0,0-.71,6.8,31.82,31.82,0,0,0,1.94,7.19,28,28,0,0,0,2.82,5.51,15.17,15.17,0,0,0,3.39,3.7,9,9,0,0,0,3.69,1.72,6.73,6.73,0,0,0,3.8-.38,9.37,9.37,0,0,0,3.5-2.26,12.74,12.74,0,0,0,2.18-3.17,19.82,19.82,0,0,0,1.36-3.72Q181.11,159,181.63,157Z"/><path d="M189.87,90.56q1.23,4.44,2.67,9t2.92,9.11q1.49,4.52,3,8.86t2.88,8.27q2.34,6.57,5.11,14t5.79,14.83l20.62-7.33,2.12,6-29.84,10.61q-1.23-4.44-2.67-9.06t-2.94-9.16q-1.5-4.54-3-8.89t-2.88-8.27q-1.39-3.92-3-8.23t-3.28-8.75q-1.69-4.44-3.48-8.91T180.25,94Z"/><path d="M226.89,77.87Q228,82.34,229.3,87T232,96.16q1.37,4.56,2.74,8.94t2.66,8.34q2.15,6.63,4.72,14.18t5.38,15l20.81-6.77,2,6-30.12,9.79q-1.11-4.47-2.43-9.13T235,133.27q-1.37-4.58-2.74-9T229.61,116q-1.29-4-2.76-8.31t-3-8.84q-1.57-4.49-3.24-9T217.17,81Z"/><path d="M264.24,66.19q1,4.49,2.22,9.15t2.48,9.24q1.27,4.58,2.54,9T274,102q1.2,4,2.58,8.37t2.86,8.93q1.48,4.55,3,9.13t3.14,8.9l-9.68,2.92q-1-4.49-2.23-9.18t-2.49-9.3q-1.28-4.61-2.55-9t-2.47-8.4q-1.2-4-2.58-8.37t-2.85-8.9q-1.48-4.52-3-9.07t-3.21-8.86Z"/><path d="M271.66,63.89,307.33,54,309,60.07l-13.28,3.69q1.71,7.77,3.73,15.45t3.88,14.35q1.11,4,2.39,8.42t2.67,9q1.38,4.58,2.84,9.2t2.94,9l-9.74,2.71q-.92-4.51-2-9.22t-2.29-9.35q-1.18-4.64-2.35-9.08t-2.29-8.45q-1.85-6.66-4.11-14.28t-4.75-15.17L273.35,70Z"/><path d="M358.28,117.83,357,111.42q-.91,1.73-1.88,3.44a17.2,17.2,0,0,1-2.34,3.19,15.1,15.1,0,0,1-3.28,2.64,16.82,16.82,0,0,1-4.75,1.86A14.13,14.13,0,0,1,332.51,120a20,20,0,0,1-4.84-5.57,29.9,29.9,0,0,1-3.36-8.5,28.2,28.2,0,0,1-.72-11.34,20.76,20.76,0,0,1,3.87-9.07,30.84,30.84,0,0,1,8.2-7.41,82.22,82.22,0,0,1,12.27-6.35,71.17,71.17,0,0,0-3.23-10.34,22.8,22.8,0,0,0-3.53-6.12,7.64,7.64,0,0,0-4-2.62,9.59,9.59,0,0,0-4.51.1,14.38,14.38,0,0,0-4,1.69,25,25,0,0,0-3.74,2.78,41.8,41.8,0,0,0-3.52,3.56q-1.72,2-3.33,4l-2.5-10.18q2-1.38,3.82-2.58t3.71-2.22A42,42,0,0,1,327,48a29.38,29.38,0,0,1,4.28-1.38,24.1,24.1,0,0,1,8.36-.72,13.67,13.67,0,0,1,6.7,2.59,18.39,18.39,0,0,1,5.14,6.2,42.55,42.55,0,0,1,3.66,10.06q.14.58.45,1.95t.73,3.21l.91,4,1,4.16.89,3.87q.42,1.82.71,3,.68,2.78,1.59,6.26t2,7.38q1.1,3.91,2.34,8.16t2.6,8.66Zm-2.88-14.48q-1.15-5.39-2.55-11.53t-3.32-14A39.91,39.91,0,0,0,339.39,83,18,18,0,0,0,334.12,89a14.15,14.15,0,0,0-1.6,6.65,31.92,31.92,0,0,0,1,7.38,28.08,28.08,0,0,0,2.07,5.84,15.15,15.15,0,0,0,2.87,4.11,9,9,0,0,0,3.43,2.19,6.71,6.71,0,0,0,3.81.12,9.37,9.37,0,0,0,3.76-1.78A12.75,12.75,0,0,0,352,110.6a19.76,19.76,0,0,0,1.84-3.51Q354.63,105.21,355.4,103.35Z"/><path d="M389.07,106.15a13.61,13.61,0,0,0,4-1.54,9.75,9.75,0,0,0,3.17-2.9A10.87,10.87,0,0,0,398,97.38a15.09,15.09,0,0,0-.24-5.83,12.58,12.58,0,0,0-2.25-5,21.94,21.94,0,0,0-4-4,39.88,39.88,0,0,0-5.14-3.42q-2.82-1.58-5.75-3.18t-5.78-3.33a36.36,36.36,0,0,1-5.24-3.87,24,24,0,0,1-4.13-4.79A17.62,17.62,0,0,1,363,57.8a18,18,0,0,1,.06-8.85,16.64,16.64,0,0,1,3.54-6.52,18.87,18.87,0,0,1,5.69-4.32,27.33,27.33,0,0,1,6.55-2.32,39.62,39.62,0,0,1,6.75-.85q3.32-.12,6.41-.11l2.22,10.52q-2-1.07-3.75-1.92a23.24,23.24,0,0,0-3.43-1.35,15.53,15.53,0,0,0-3.36-.62,12.65,12.65,0,0,0-3.48.27,14.5,14.5,0,0,0-4.07,1.49,9.52,9.52,0,0,0-3,2.6,9.41,9.41,0,0,0-1.65,3.72,11.59,11.59,0,0,0,.11,4.84,12.82,12.82,0,0,0,3.4,6.43,31.49,31.49,0,0,0,6.16,4.86q3.55,2.18,7.58,4.25a62.8,62.8,0,0,1,7.67,4.68,32.47,32.47,0,0,1,6.41,6,19.4,19.4,0,0,1,3.8,8.34,23.34,23.34,0,0,1,.53,6.71,17.58,17.58,0,0,1-1.26,5.41,15.52,15.52,0,0,1-2.62,4.22,18.32,18.32,0,0,1-3.58,3.16,21.29,21.29,0,0,1-4.21,2.19,28.76,28.76,0,0,1-4.39,1.31q-2.59.55-4.8.82t-4.16.33q-1.95.05-3.66-.06t-3.35-.31l-2.29-10.84q2,1.19,3.89,2.19a24.31,24.31,0,0,0,3.91,1.63,17.07,17.07,0,0,0,4.06.77A16,16,0,0,0,389.07,106.15Z"/><path d="M440.28,63.31a67.82,67.82,0,0,0,3.43,13.38,34.59,34.59,0,0,0,5.1,9.33,17.17,17.17,0,0,0,6.42,5.17,12.91,12.91,0,0,0,7.4.91,13.69,13.69,0,0,0,4.07-1.26,16,16,0,0,0,3-2,20.2,20.2,0,0,0,2.43-2.42q1.1-1.3,2.17-2.51l1.74,10.72q-2.87,1.23-5.81,2.17a46.06,46.06,0,0,1-6.62,1.54,24.72,24.72,0,0,1-10.93-.58,23,23,0,0,1-9.53-5.6,35.35,35.35,0,0,1-7.46-10.89A63.25,63.25,0,0,1,431,64.82a60.14,60.14,0,0,1-.62-17.12A36.19,36.19,0,0,1,434.18,35a23.51,23.51,0,0,1,7.3-8.33,24,24,0,0,1,9.9-4,46,46,0,0,1,6.77-.63q3.09,0,6.2.23L466.08,33q-1.39-.81-2.85-1.7a20.63,20.63,0,0,0-3.07-1.53,16,16,0,0,0-3.52-.93,13.68,13.68,0,0,0-4.26.09,12.9,12.9,0,0,0-6.73,3.2,17.18,17.18,0,0,0-4.46,6.94,34.66,34.66,0,0,0-1.89,10.46A67.88,67.88,0,0,0,440.28,63.31Z"/><path d="M523.54,51.57a73.22,73.22,0,0,1,.38,17.35,37.64,37.64,0,0,1-3.41,12.52,20.71,20.71,0,0,1-6.5,7.87,19.83,19.83,0,0,1-18.28,2.3,20.72,20.72,0,0,1-8.24-6,38.05,38.05,0,0,1-6.43-11.28,72.13,72.13,0,0,1-3.95-16.91,71.89,71.89,0,0,1-.35-17.3,38.4,38.4,0,0,1,3.43-12.55,20.64,20.64,0,0,1,6.5-7.9A19.84,19.84,0,0,1,505,17.36a20.67,20.67,0,0,1,8.25,6,38,38,0,0,1,6.4,11.31A72.91,72.91,0,0,1,523.54,51.57Zm-9.22,1.16a83,83,0,0,0-2.86-14.13,39,39,0,0,0-4.19-9.52,15.06,15.06,0,0,0-5.15-5.18,9.24,9.24,0,0,0-11,1.39,15.19,15.19,0,0,0-3.73,6.3,38.1,38.1,0,0,0-1.73,10.27,82.81,82.81,0,0,0,.72,14.4,83.27,83.27,0,0,0,2.87,14.18,37.65,37.65,0,0,0,4.22,9.49,15.26,15.26,0,0,0,5.17,5.15,9.24,9.24,0,0,0,11-1.39,15,15,0,0,0,3.71-6.27A38.41,38.41,0,0,0,515,67.18,83.4,83.4,0,0,0,514.32,52.73Z"/><path d="M564.91,49.34q-.85-8.39-1.63-14.64a72.91,72.91,0,0,0-1.93-10.3,15.42,15.42,0,0,0-2.83-6,4.89,4.89,0,0,0-4.32-1.68A8.28,8.28,0,0,0,550.91,18a22.8,22.8,0,0,0-3.8,2.8,33.65,33.65,0,0,0-3.63,3.82,23.45,23.45,0,0,0-2.78,4.2q.61,10.69,1.57,21.61.44,5,.89,9.53t.94,8.87q.49,4.35,1.09,8.72t1.29,9.14l-10,.87q-.15-4.81-.35-9.22t-.44-8.78q-.25-4.37-.59-8.9t-.78-9.53q-.44-5-.9-9.71t-1-9.3q-.54-4.59-1.13-9.18T530,13.56l10-.88.25,8.39a33.35,33.35,0,0,1,3.28-4,32,32,0,0,1,3.88-3.46,21.77,21.77,0,0,1,4.23-2.51,13.75,13.75,0,0,1,4.4-1.17,11.43,11.43,0,0,1,10.38,4.22q4,4.78,4.85,14.85.21,2.48.44,5.3t.4,5.55q.19,2.72.36,5t.3,3.77q.44,5,.87,9.36t.91,8.54q.47,4.19,1,8.43t1.25,9l-9.9.87q-.15-4.81-.31-9.09t-.36-8.48q-.2-4.22-.56-8.58T564.91,49.34Z"/><path d="M623.49,7.23a20.25,20.25,0,0,1,8.16,1.23,15.91,15.91,0,0,1,6.19,4.28,20.31,20.31,0,0,1,4,7.1,34,34,0,0,1,1.63,9.62,30.44,30.44,0,0,1-.25,5,26.47,26.47,0,0,1-3.51,10.19,17.56,17.56,0,0,1-3.54,4.27,17.37,17.37,0,0,1-5,3,19.06,19.06,0,0,1-6.52,1.3l-8.32.31q.37,6.91.83,14.11t1.15,14.1l-10.1.38q.15-4.6.16-9.44T608.35,63q-.07-4.78-.19-9.37t-.28-8.75q-.16-4.16-.38-8.75T607,26.83q-.29-4.75-.66-9.55t-.87-9.38Zm-8,6.36q-.08,8,.09,16t.43,15l.11,2.92,8.32-.31a8.42,8.42,0,0,0,7.39-4.74q2.53-4.56,2.23-12.66-.31-8.26-3-12.49a8.38,8.38,0,0,0-7.89-4Z"/><path d="M682.47,14.92a35.1,35.1,0,0,0-12.44,2,14.9,14.9,0,0,0-7.8,6q-.36,10.49-.39,21.13,0,5,0,9.57t.13,8.92q.09,4.38.3,8.78t.46,9.21l-10,0q.29-4.81.49-9.21t.35-8.78q.15-4.38.22-8.92T653.9,44q0-5,0-9.76t-.16-9.35q-.12-4.62-.3-9.24T653,6.24l10.05,0q-.17,2.54-.31,4.54t-.26,4.48a27.15,27.15,0,0,1,4.26-3.88A37.25,37.25,0,0,1,672,8.11a34.31,34.31,0,0,1,5.52-2.28,16.82,16.82,0,0,1,5-.85Z"/><path d="M729.91,44.14a73.18,73.18,0,0,1-2.13,17.23,37.63,37.63,0,0,1-5.18,11.9A20.72,20.72,0,0,1,715,80.11a19.84,19.84,0,0,1-18.42-.36,20.71,20.71,0,0,1-7.29-7.14,38.06,38.06,0,0,1-4.73-12.09,72.1,72.1,0,0,1-1.47-17.3A71.81,71.81,0,0,1,685.27,26a38.41,38.41,0,0,1,5.21-11.92,20.65,20.65,0,0,1,7.57-6.88,19.84,19.84,0,0,1,18.42.37,20.65,20.65,0,0,1,7.29,7.17,38,38,0,0,1,4.71,12.12A72.92,72.92,0,0,1,729.91,44.14ZM720.62,44a82.8,82.8,0,0,0-.8-14.39,39,39,0,0,0-2.77-10,15,15,0,0,0-4.34-5.87,9.24,9.24,0,0,0-11.13-.22,15.26,15.26,0,0,0-4.6,5.69,38.16,38.16,0,0,0-3.2,9.91,82.75,82.75,0,0,0-1.36,14.35,83.12,83.12,0,0,0,.79,14.45,37.7,37.7,0,0,0,2.8,10,15.26,15.26,0,0,0,4.37,5.84,9.24,9.24,0,0,0,11.13.22,15.06,15.06,0,0,0,4.57-5.66,38.53,38.53,0,0,0,3.17-9.88A83.43,83.43,0,0,0,720.62,44Z"/><path d="M734.17,7.17l37,1.88-.32,6.31-13.76-.7q-.84,7.91-1.35,15.84t-.86,14.83q-.21,4.16-.39,8.75t-.31,9.37q-.13,4.78-.22,9.62t0,9.44L743.78,82q.56-4.57,1-9.39t.79-9.59q.35-4.77.64-9.36t.5-8.74q.35-6.91.62-14.85t.3-15.89l-13.76-.7Z"/><path d="M794.82,80.48a14.46,14.46,0,0,0,4.33-.25,18.87,18.87,0,0,0,3.65-1.2,19.27,19.27,0,0,0,3.12-1.75l2.76-1.92L807.82,86q-1.42.16-2.87.36c-1,.14-2,.25-3.23.34s-2.5.14-3.94.17-3.11,0-5-.18a19.9,19.9,0,0,1-9.94-3.43,22.6,22.6,0,0,1-7-8.16A38.76,38.76,0,0,1,772,62.67a70.35,70.35,0,0,1-.38-16.16,82.15,82.15,0,0,1,2.67-15.64A43.52,43.52,0,0,1,779.35,19a22.19,22.19,0,0,1,7.37-7.32,15.89,15.89,0,0,1,9.52-2.05,17,17,0,0,1,9.14,3.26,18.8,18.8,0,0,1,5.83,7.79,39.13,39.13,0,0,1,2.72,12,97.88,97.88,0,0,1-.12,16l-.16,2L781.11,48a108.44,108.44,0,0,0,.21,14.6,33.89,33.89,0,0,0,2.21,9.88A12.58,12.58,0,0,0,788,78.27,14.09,14.09,0,0,0,794.82,80.48Zm10.06-36.81q.14-3.13.19-6.38T804.9,31a42.49,42.49,0,0,0-.78-5.75,17.93,17.93,0,0,0-1.65-4.74,9.88,9.88,0,0,0-2.77-3.31,7.71,7.71,0,0,0-4.11-1.47A6.93,6.93,0,0,0,790,17.64a17.9,17.9,0,0,0-3.94,5.92,44.84,44.84,0,0,0-2.66,8.51q-1,4.8-1.7,9.73Z"/><path d="M830.58,51.53a67.94,67.94,0,0,0-.34,13.81,34.61,34.61,0,0,0,2.37,10.36,17.18,17.18,0,0,0,4.78,6.72,12.9,12.9,0,0,0,6.88,2.88,13.69,13.69,0,0,0,4.26-.11,16.05,16.05,0,0,0,3.47-1.1,20.56,20.56,0,0,0,3-1.67q1.42-1,2.77-1.83l-1.24,10.79q-3.09.41-6.18.51a45.94,45.94,0,0,1-6.79-.32,24.73,24.73,0,0,1-10.37-3.53,23,23,0,0,1-7.65-8,35.34,35.34,0,0,1-4.22-12.51,63.15,63.15,0,0,1-.07-17.12,60.18,60.18,0,0,1,4.06-16.64,36.21,36.21,0,0,1,7.11-11.21,23.49,23.49,0,0,1,9.29-6,24,24,0,0,1,10.6-1.12A45.68,45.68,0,0,1,859,16.69q3,.81,5.9,1.9l-1.24,10.79q-1.12-1.16-2.28-2.41a20.54,20.54,0,0,0-2.54-2.3,16.24,16.24,0,0,0-3.13-1.86,13.73,13.73,0,0,0-4.12-1.07A12.91,12.91,0,0,0,844.22,23,17.17,17.17,0,0,0,838,28.45,34.6,34.6,0,0,0,833.38,38,67.85,67.85,0,0,0,830.58,51.53Z"/><path d="M876.86,57.29a67.91,67.91,0,0,0-.79,13.79,34.54,34.54,0,0,0,2,10.44,17.18,17.18,0,0,0,4.55,6.88,12.88,12.88,0,0,0,6.78,3.11,13.59,13.59,0,0,0,4.26,0,15.87,15.87,0,0,0,3.51-1,20.43,20.43,0,0,0,3-1.57q1.45-.9,2.83-1.74L901.46,98q-3.1.3-6.19.31a46,46,0,0,1-6.78-.54,24.73,24.73,0,0,1-10.24-3.87,23,23,0,0,1-7.38-8.23A35.35,35.35,0,0,1,867.07,73a63.27,63.27,0,0,1,.49-17.11,60.21,60.21,0,0,1,4.61-16.5,36.17,36.17,0,0,1,7.48-11,23.49,23.49,0,0,1,9.48-5.72A23.93,23.93,0,0,1,899.76,22a45.74,45.74,0,0,1,6.64,1.45q3,.9,5.84,2.1l-1.6,10.74q-1.08-1.2-2.2-2.48A20.51,20.51,0,0,0,906,31.38a16,16,0,0,0-3.07-2,13.74,13.74,0,0,0-4.08-1.21,12.91,12.91,0,0,0-7.39,1,17.17,17.17,0,0,0-6.35,5.26,34.65,34.65,0,0,0-5,9.39A68.09,68.09,0,0,0,876.86,57.29Z"/><path d="M932,28.45q-1.11,4.47-2.12,9.18T927.94,47q-.92,4.67-1.76,9.18t-1.55,8.62q-.71,4.1-1.45,8.63t-1.45,9.27q-.71,4.73-1.38,9.52t-1.19,9.36l-10-1.73q1.11-4.47,2.12-9.2t1.94-9.43q.93-4.69,1.76-9.21t1.55-8.62q.71-4.1,1.44-8.63t1.44-9.24q.71-4.7,1.34-9.47t1.1-9.35Z"/><path d="M981.28,75.93a73.2,73.2,0,0,1-5.17,16.57,37.63,37.63,0,0,1-7.22,10.78,20.72,20.72,0,0,1-8.67,5.39A19.84,19.84,0,0,1,942.15,105a20.72,20.72,0,0,1-5.9-8.33,38.09,38.09,0,0,1-2.5-12.74,72,72,0,0,1,1.64-17.28,71.82,71.82,0,0,1,5.18-16.51,38.45,38.45,0,0,1,7.25-10.8,20.66,20.66,0,0,1,8.68-5.41,19.84,19.84,0,0,1,18.06,3.65,20.66,20.66,0,0,1,5.89,8.36,38,38,0,0,1,2.47,12.76A73,73,0,0,1,981.28,75.93Zm-9.11-1.84A82.94,82.94,0,0,0,974,59.79,39,39,0,0,0,973,49.43a15,15,0,0,0-3.23-6.55,9.24,9.24,0,0,0-10.91-2.2,15.22,15.22,0,0,0-5.54,4.78,38.17,38.17,0,0,0-4.91,9.18,82.93,82.93,0,0,0-3.91,13.88,83.32,83.32,0,0,0-1.8,14.36,37.64,37.64,0,0,0,1,10.34,15.26,15.26,0,0,0,3.26,6.53,9.24,9.24,0,0,0,10.91,2.2,15.09,15.09,0,0,0,5.51-4.76A38.47,38.47,0,0,0,968.25,88,83.26,83.26,0,0,0,972.16,74.09ZM964,27.52l9.89-13.22,9.43,1.9L969.65,28.65Z"/><path d="M1021.2,87q1.88-8.22,3.12-14.4a72.7,72.7,0,0,0,1.46-10.38,15.44,15.44,0,0,0-.78-6.55,4.89,4.89,0,0,0-3.56-3,8.29,8.29,0,0,0-3.5.1,22.79,22.79,0,0,0-4.49,1.44,33.53,33.53,0,0,0-4.65,2.46,23.56,23.56,0,0,0-4,3.1q-2.83,10.32-5.41,21-1.18,4.88-2.2,9.31t-1.94,8.7q-.93,4.28-1.75,8.61t-1.69,9.07l-9.72-2.35q1.39-4.61,2.61-8.85t2.38-8.46q1.16-4.22,2.28-8.62t2.3-9.28q1.18-4.89,2.24-9.5t2-9.13q1-4.52,1.86-9.06T999.58,42l9.77,2.36-2.44,8a33.17,33.17,0,0,1,4.39-2.75,32,32,0,0,1,4.77-2,21.79,21.79,0,0,1,4.81-1,13.69,13.69,0,0,1,4.54.29,11.44,11.44,0,0,1,8.49,7.31q2.24,5.8-.14,15.62-.58,2.42-1.28,5.17t-1.39,5.39q-.69,2.64-1.27,4.89t-.92,3.67q-1.18,4.89-2.16,9.15t-1.86,8.39q-.89,4.12-1.71,8.32t-1.69,8.93l-9.66-2.34q1.39-4.61,2.61-8.71t2.36-8.16q1.15-4.06,2.21-8.31T1021.2,87Z"/><path d="M1065.14,131a13.66,13.66,0,0,0,4.26.55,9.79,9.79,0,0,0,4.17-1.05,10.89,10.89,0,0,0,3.58-3,15.11,15.11,0,0,0,2.56-5.24,12.62,12.62,0,0,0,.41-5.51,22,22,0,0,0-1.58-5.43,40,40,0,0,0-2.9-5.45q-1.73-2.73-3.55-5.53t-3.51-5.68a36.13,36.13,0,0,1-2.77-5.89,24,24,0,0,1-1.36-6.18,17.6,17.6,0,0,1,.72-6.55,18,18,0,0,1,4.26-7.76,16.62,16.62,0,0,1,6.21-4.06,18.86,18.86,0,0,1,7.06-1.1,27.45,27.45,0,0,1,6.87,1.07,39.56,39.56,0,0,1,6.34,2.46q3,1.47,5.7,2.95l-3,10.31q-1.25-1.89-2.39-3.46a23.42,23.42,0,0,0-2.38-2.81,15.44,15.44,0,0,0-2.67-2.14,12.58,12.58,0,0,0-3.19-1.42,14.54,14.54,0,0,0-4.3-.62,9.5,9.5,0,0,0-3.91.85,9.39,9.39,0,0,0-3.21,2.49,11.63,11.63,0,0,0-2.2,4.31,12.81,12.81,0,0,0-.06,7.28,31.48,31.48,0,0,0,3.12,7.2q2.09,3.6,4.65,7.34a62.61,62.61,0,0,1,4.53,7.76,32.38,32.38,0,0,1,2.78,8.34,19.42,19.42,0,0,1-.61,9.14,23.4,23.4,0,0,1-2.72,6.16,17.52,17.52,0,0,1-3.68,4.16A15.55,15.55,0,0,1,1078,137a18.28,18.28,0,0,1-4.66,1.08,21.18,21.18,0,0,1-4.74-.07,28.74,28.74,0,0,1-4.49-.93q-2.54-.75-4.61-1.56t-3.81-1.69q-1.74-.88-3.19-1.79t-2.8-1.87l3.13-10.63q1.16,2,2.38,3.77a24.5,24.5,0,0,0,2.66,3.29,17.34,17.34,0,0,0,3.2,2.61A16,16,0,0,0,1065.14,131Z"/><path d="M1145.29,122.56a73.31,73.31,0,0,1-7.14,15.82,37.66,37.66,0,0,1-8.48,9.82,20.72,20.72,0,0,1-9.26,4.29,19.84,19.84,0,0,1-17.48-5.82,20.71,20.71,0,0,1-4.84-9,38,38,0,0,1-.93-13,72.08,72.08,0,0,1,3.73-17A71.8,71.8,0,0,1,1108,92a38.33,38.33,0,0,1,8.51-9.84,20.63,20.63,0,0,1,9.27-4.32,19.83,19.83,0,0,1,17.48,5.82,20.66,20.66,0,0,1,4.83,9,38,38,0,0,1,.89,13A73,73,0,0,1,1145.29,122.56Zm-8.82-2.93a83,83,0,0,0,3.51-14,38.92,38.92,0,0,0,.33-10.4,15,15,0,0,0-2.4-6.89,9.24,9.24,0,0,0-10.56-3.52,15.21,15.21,0,0,0-6.08,4.07,38.09,38.09,0,0,0-6,8.51,82.86,82.86,0,0,0-5.56,13.3,83.28,83.28,0,0,0-3.53,14,37.66,37.66,0,0,0-.29,10.38,15.26,15.26,0,0,0,2.44,6.88,9.24,9.24,0,0,0,10.56,3.51,15.05,15.05,0,0,0,6-4.05,38.43,38.43,0,0,0,6-8.5A83.27,83.27,0,0,0,1136.47,119.62Z"/><path d="M1176.9,94.62q-1.9,4.2-3.75,8.64t-3.6,8.87q-1.75,4.42-3.4,8.71t-3.09,8.19q-2.42,6.54-5.09,14.05t-5.07,15.09l20.53,7.6-2.2,5.93-29.7-11q1.9-4.19,3.75-8.66t3.62-8.92q1.76-4.45,3.41-8.74t3.09-8.19q1.44-3.9,3-8.23t3.09-8.82q1.55-4.5,3-9.07t2.78-9Z"/><path d="M1201.7,184l2.71-6q-1.75.86-3.54,1.68a17.1,17.1,0,0,1-3.76,1.22,15.2,15.2,0,0,1-4.2.22,16.86,16.86,0,0,1-4.94-1.27,14.13,14.13,0,0,1-8.41-9.25,19.94,19.94,0,0,1-.66-7.35,29.94,29.94,0,0,1,2.25-8.86,28.22,28.22,0,0,1,6.06-9.61,20.74,20.74,0,0,1,8.45-5.09,30.82,30.82,0,0,1,11-1.2,82.23,82.23,0,0,1,13.66,2,71.42,71.42,0,0,0,3.44-10.27,22.83,22.83,0,0,0,.72-7,7.63,7.63,0,0,0-1.67-4.44,9.61,9.61,0,0,0-3.72-2.56,14.49,14.49,0,0,0-4.26-1,25.12,25.12,0,0,0-4.66.06,42.13,42.13,0,0,0-4.94.82q-2.54.58-5,1.31l3.94-9.71q2.43.05,4.61.15t4.31.38a42.26,42.26,0,0,1,4.21.77,29.5,29.5,0,0,1,4.28,1.39,24.12,24.12,0,0,1,7.2,4.32,13.67,13.67,0,0,1,3.91,6,18.37,18.37,0,0,1,.53,8,42.48,42.48,0,0,1-2.92,10.3q-.22.55-.78,1.84l-1.29,3-1.57,3.74-1.66,3.94-1.54,3.66q-.72,1.72-1.19,2.87-1.08,2.65-2.38,6t-2.7,7.16q-1.4,3.81-2.89,8t-3,8.54Zm6.15-13.43q2.22-5,4.69-10.84t5.51-13.3a40,40,0,0,0-11.26-1.71,18,18,0,0,0-7.76,1.72,14.15,14.15,0,0,0-5.19,4.45,31.85,31.85,0,0,0-3.53,6.56,28,28,0,0,0-1.74,5.94,15.15,15.15,0,0,0-.08,5,9,9,0,0,0,1.5,3.79,6.71,6.71,0,0,0,3,2.33,9.4,9.4,0,0,0,4.1.76,12.75,12.75,0,0,0,3.77-.81,19.91,19.91,0,0,0,3.55-1.77Z"/><path d="M1273.65,143.56a35.15,35.15,0,0,0-12.18-3.19,14.9,14.9,0,0,0-9.56,2.39q-4.53,9.46-8.83,19.2-2,4.6-3.81,8.77t-3.45,8.22q-1.67,4-3.25,8.16t-3.28,8.62l-9.15-4q2.19-4.29,4.14-8.24t3.84-7.9q1.89-4,3.77-8.08t3.91-8.73q2-4.6,3.89-8.95t3.6-8.63q1.74-4.28,3.44-8.58t3.39-8.81l9.2,4.06-2.11,4q-.93,1.78-2,4a27.27,27.27,0,0,1,5.45-1.85,37.61,37.61,0,0,1,6.16-.91,34.34,34.34,0,0,1,6,.13,16.81,16.81,0,0,1,4.9,1.22Z"/><path d="M351.27,201.4a6.94,6.94,0,0,0-2.14-.73,16.15,16.15,0,0,0-2.71-.26,18.57,18.57,0,0,0-2.87.17,20.21,20.21,0,0,0-2.58.51,14.59,14.59,0,0,0-5.55,2.76,11.53,11.53,0,0,0-3.31,4.47,15.42,15.42,0,0,0-1.11,5.94,26.65,26.65,0,0,0,1,7.17l2.37,8.6,20.32-5.6,1.68,6.1-20.32,5.6.53,1.93q2.18,7.92,4.67,16.23t5.41,16.7l-9.79,2.7q-1.9-8.73-4-17.18t-4.23-16.27l-4.58-16.62a33.25,33.25,0,0,1-1.32-10.06,19.88,19.88,0,0,1,2.07-8.36,18.49,18.49,0,0,1,5.46-6.41,26,26,0,0,1,8.83-4.14q1-.29,2.37-.57t2.66-.51q1.34-.23,2.59-.35a11.88,11.88,0,0,1,2.17,0Z"/><path d="M399.57,257.47,398.31,251q-.92,1.72-1.9,3.43a17.13,17.13,0,0,1-2.35,3.17,15.21,15.21,0,0,1-3.29,2.62A16.84,16.84,0,0,1,386,262.1a14.13,14.13,0,0,1-12.22-2.63,19.94,19.94,0,0,1-4.81-5.6,29.92,29.92,0,0,1-3.32-8.51A28.25,28.25,0,0,1,365,234a20.75,20.75,0,0,1,3.92-9.05,30.81,30.81,0,0,1,8.24-7.36,82.22,82.22,0,0,1,12.31-6.28A71.22,71.22,0,0,0,386.3,201a22.88,22.88,0,0,0-3.49-6.14,7.65,7.65,0,0,0-3.94-2.64,9.61,9.61,0,0,0-4.51.08,14.42,14.42,0,0,0-4,1.66,25.13,25.13,0,0,0-3.76,2.76,41.75,41.75,0,0,0-3.54,3.54q-1.73,1.94-3.35,4L357.22,194q2-1.37,3.83-2.56t3.73-2.2a42.29,42.29,0,0,1,3.87-1.82,29.55,29.55,0,0,1,4.29-1.36,24.09,24.09,0,0,1,8.37-.67,13.67,13.67,0,0,1,6.68,2.62,18.4,18.4,0,0,1,5.1,6.22,42.49,42.49,0,0,1,3.61,10.08q.14.58.44,2t.72,3.22q.41,1.85.89,4l.94,4.16.87,3.88q.4,1.82.7,3,.67,2.79,1.55,6.27t2,7.39q1.07,3.91,2.29,8.18t2.55,8.67Zm-32-75.75L371,165.56l9.36-2.24-7.2,17.06ZM396.76,243q-1.13-5.4-2.48-11.55t-3.25-14a40,40,0,0,0-10.16,5.15,18,18,0,0,0-5.31,5.91,14.14,14.14,0,0,0-1.63,6.64,32,32,0,0,0,.94,7.39,28.14,28.14,0,0,0,2,5.85,15.15,15.15,0,0,0,2.85,4.12,9,9,0,0,0,3.42,2.21,6.72,6.72,0,0,0,3.81.14,9.38,9.38,0,0,0,3.77-1.76,12.74,12.74,0,0,0,2.6-2.84,19.72,19.72,0,0,0,1.86-3.5Q396,244.82,396.76,243Z"/><path d="M419.24,215.19a67.86,67.86,0,0,0,3.91,13.24,34.66,34.66,0,0,0,5.43,9.14,17.19,17.19,0,0,0,6.6,4.94,12.9,12.9,0,0,0,7.43.64,13.7,13.7,0,0,0,4-1.41,16.09,16.09,0,0,0,3-2.11,20.56,20.56,0,0,0,2.34-2.51q1.05-1.34,2.07-2.59l2.13,10.65q-2.82,1.33-5.72,2.38a45.83,45.83,0,0,1-6.56,1.78,24.73,24.73,0,0,1-10.95-.19,23,23,0,0,1-9.73-5.25,35.33,35.33,0,0,1-7.85-10.61A63.26,63.26,0,0,1,410,217a60.21,60.21,0,0,1-1.23-17.08,36.17,36.17,0,0,1,3.33-12.84,23.5,23.5,0,0,1,7-8.59,24,24,0,0,1,9.75-4.31,45.86,45.86,0,0,1,6.74-.88q3.08-.15,6.2,0L443.93,184q-1.42-.76-2.91-1.6A20.64,20.64,0,0,0,437.9,181a16.11,16.11,0,0,0-3.55-.81,13.69,13.69,0,0,0-4.25.24,12.9,12.9,0,0,0-6.61,3.44,17.16,17.16,0,0,0-4.21,7.09,34.64,34.64,0,0,0-1.51,10.52A68,68,0,0,0,419.24,215.19Z"/><path d="M461.53,169.47q.46,4.58,1.08,9.35t1.32,9.48q.7,4.71,1.42,9.24t1.42,8.64q.7,4.1,1.53,8.62t1.74,9.21q.91,4.7,1.89,9.44t2,9.22l-10,1.71q-.46-4.58-1.09-9.38t-1.33-9.53q-.7-4.73-1.42-9.27t-1.43-8.64q-.7-4.1-1.53-8.62t-1.74-9.19q-.91-4.67-1.91-9.38t-2.09-9.18Z"/><path d="M483.94,165.93q.35,4.59.86,9.38t1.1,9.51q.59,4.72,1.2,9.27t1.22,8.67q1,6.9,2.28,14.77t2.8,15.68L515,230l.92,6.26-31.33,4.6q-.35-4.59-.86-9.4t-1.1-9.56q-.59-4.75-1.2-9.3t-1.22-8.67q-.6-4.12-1.32-8.65t-1.52-9.23q-.8-4.69-1.68-9.42t-1.87-9.23Z"/><path d="M544.68,228.07a14.48,14.48,0,0,0,4.2-1.07,19,19,0,0,0,3.35-1.87,19.51,19.51,0,0,0,2.73-2.32l2.34-2.41L558.49,231q-1.37.43-2.75.91t-3.1.94q-1.72.46-3.84.92t-4.92.77A19.91,19.91,0,0,1,533.46,233a22.61,22.61,0,0,1-8.46-6.67,38.72,38.72,0,0,1-6.14-11.44,70.25,70.25,0,0,1-3.45-15.79,82.38,82.38,0,0,1-.36-15.86,43.63,43.63,0,0,1,2.75-12.62,22.19,22.19,0,0,1,5.84-8.59,15.88,15.88,0,0,1,9-3.83,17,17,0,0,1,9.6,1.46,18.79,18.79,0,0,1,7.2,6.54,39.13,39.13,0,0,1,5,11.27,97.82,97.82,0,0,1,2.92,15.71l.22,2-32.44,3.62a108.27,108.27,0,0,0,3,14.29,33.94,33.94,0,0,0,4.05,9.28,12.56,12.56,0,0,0,5.46,4.8A14.1,14.1,0,0,0,544.68,228.07ZM547.56,190q-.46-3.1-1-6.3t-1.37-6.16a42.48,42.48,0,0,0-1.86-5.5,18,18,0,0,0-2.52-4.34,9.89,9.89,0,0,0-3.35-2.73,7.69,7.69,0,0,0-4.32-.66,6.92,6.92,0,0,0-5.08,3,18,18,0,0,0-2.75,6.56,44.94,44.94,0,0,0-1,8.87q-.11,4.91.18,9.88Z"/><path d="M581.61,224.89a13.65,13.65,0,0,0,4.18-1,9.79,9.79,0,0,0,3.53-2.46,10.89,10.89,0,0,0,2.3-4,15.09,15.09,0,0,0,.54-5.81,12.61,12.61,0,0,0-1.56-5.3,22,22,0,0,0-3.4-4.51,39.6,39.6,0,0,0-4.64-4.07q-2.58-1.95-5.28-3.91T572,189.71a36.29,36.29,0,0,1-4.68-4.53,24,24,0,0,1-3.46-5.29,17.63,17.63,0,0,1-1.65-6.38,18.05,18.05,0,0,1,1.24-8.76,16.63,16.63,0,0,1,4.37-6,18.89,18.89,0,0,1,6.21-3.53,27.4,27.4,0,0,1,6.8-1.43,39.59,39.59,0,0,1,6.81.06q3.3.32,6.37.74l.81,10.72q-1.83-1.33-3.46-2.4a23.26,23.26,0,0,0-3.22-1.79,15.39,15.39,0,0,0-3.25-1.06,12.66,12.66,0,0,0-3.48-.2,14.59,14.59,0,0,0-4.24.94,9.5,9.5,0,0,0-3.36,2.18,9.33,9.33,0,0,0-2.12,3.47,11.57,11.57,0,0,0-.53,4.81,12.81,12.81,0,0,0,2.52,6.83,31.44,31.44,0,0,0,5.46,5.63q3.23,2.63,6.95,5.22a62.67,62.67,0,0,1,7,5.65,32.4,32.4,0,0,1,5.55,6.82,19.4,19.4,0,0,1,2.66,8.77,23.34,23.34,0,0,1-.36,6.72,17.48,17.48,0,0,1-2,5.19,15.54,15.54,0,0,1-3.15,3.84,18.29,18.29,0,0,1-4,2.66,21.21,21.21,0,0,1-4.46,1.61,28.75,28.75,0,0,1-4.52.72q-2.64.2-4.86.18t-4.16-.23q-1.94-.21-3.62-.54t-3.28-.76l-.83-11q1.79,1.44,3.56,2.69a24.38,24.38,0,0,0,3.66,2.14,17.18,17.18,0,0,0,3.92,1.3A16,16,0,0,0,581.61,224.89Z"/><path d="M646.19,152a30.26,30.26,0,0,1,10.64,1.47,18.81,18.81,0,0,1,8.41,5.84,31.1,31.1,0,0,1,5.68,11.27,69.6,69.6,0,0,1,2.44,17.71A70.33,70.33,0,0,1,672,206.18a30.84,30.84,0,0,1-5,11.61,19,19,0,0,1-8.09,6.32,30.43,30.43,0,0,1-10.59,2.1l-16.8.49q.19-4.6.24-9.44t0-9.62q0-4.78-.11-9.38t-.2-8.75q-.12-4.16-.31-8.75t-.44-9.34q-.25-4.75-.58-9.55t-.79-9.38Zm-6.9,6.37q-.14,8,0,16t.3,14.94q.2,7,.55,15t1,15.95l7.24-.21a19,19,0,0,0,4.44-.64,11.21,11.21,0,0,0,3.89-1.93,13.7,13.7,0,0,0,3.22-3.64,21.35,21.35,0,0,0,2.4-5.75,47.24,47.24,0,0,0,1.38-8.26,111.09,111.09,0,0,0-.66-22.42,47.31,47.31,0,0,0-1.86-8.16,20.91,20.91,0,0,0-2.73-5.57,13.89,13.89,0,0,0-3.42-3.41,11.24,11.24,0,0,0-4-1.69,19,19,0,0,0-4.47-.38Z"/><path d="M706.9,221.28a14.46,14.46,0,0,0,4.31-.51,19,19,0,0,0,3.57-1.42,19.56,19.56,0,0,0,3-1.94l2.63-2.08-.2,10.64q-1.41.24-2.85.54t-3.2.53q-1.76.24-3.93.41t-5,.12a19.91,19.91,0,0,1-10.14-2.81A22.6,22.6,0,0,1,687.6,217,38.76,38.76,0,0,1,683,204.9a70.29,70.29,0,0,1-1.37-16.11,82.26,82.26,0,0,1,1.7-15.78,43.55,43.55,0,0,1,4.37-12.16,22.2,22.2,0,0,1,6.9-7.76,15.89,15.89,0,0,1,9.37-2.63,17,17,0,0,1,9.33,2.69,18.8,18.8,0,0,1,6.29,7.42A39.11,39.11,0,0,1,723,172.4a98,98,0,0,1,.86,16l0,2-32.64-.62a108.27,108.27,0,0,0,1.1,14.56,33.93,33.93,0,0,0,2.81,9.73,12.57,12.57,0,0,0,4.79,5.47A14.1,14.1,0,0,0,706.9,221.28Zm7.79-37.36q-.05-3.13-.2-6.38t-.56-6.28a42.44,42.44,0,0,0-1.14-5.7,18,18,0,0,0-1.94-4.63,9.89,9.89,0,0,0-3-3.14,7.68,7.68,0,0,0-4.19-1.21,6.92,6.92,0,0,0-5.42,2.28A18,18,0,0,0,694.7,165a44.77,44.77,0,0,0-2.14,8.66q-.74,4.85-1.11,9.82Z"/><path d="M767.9,154.62q-.65,4.56-1.18,9.34t-1,9.52q-.44,4.74-.82,9.31t-.67,8.73q-.49,7-.95,14.91t-.64,15.91l21.83,1.55-.45,6.31L752.47,228q.65-4.56,1.18-9.37t1-9.57q.44-4.76.82-9.34t.67-8.73q.29-4.15.56-8.74t.5-9.34q.23-4.75.38-9.56t.15-9.42Z"/><path d="M807,157.89q-.78,4.54-1.46,9.3t-1.26,9.49q-.59,4.72-1.1,9.29t-.94,8.7q-.7,6.94-1.39,14.88t-1.12,15.88l21.77,2.2-.64,6.29-31.51-3.18q.79-4.54,1.46-9.33t1.26-9.54q.59-4.75,1.1-9.31t.93-8.7q.42-4.14.83-8.72t.78-9.32q.37-4.74.67-9.55t.43-9.41Z"/><path d="M850.78,233a14.48,14.48,0,0,0,4.34,0,19,19,0,0,0,3.71-1,19.41,19.41,0,0,0,3.22-1.58l2.86-1.76-1.44,10.55q-1.43.08-2.89.21t-3.24.16q-1.78,0-3.95,0t-5-.46a19.91,19.91,0,0,1-9.74-4,22.61,22.61,0,0,1-6.58-8.53,38.71,38.71,0,0,1-3.16-12.59,70.27,70.27,0,0,1,.51-16.16A82.29,82.29,0,0,1,833,182.31a43.51,43.51,0,0,1,5.75-11.57,22.18,22.18,0,0,1,7.76-6.9,15.88,15.88,0,0,1,9.62-1.52,17,17,0,0,1,8.95,3.76,18.8,18.8,0,0,1,5.39,8.1,39.1,39.1,0,0,1,2.05,12.14,97.94,97.94,0,0,1-1,16l-.27,2-32.34-4.41a108.36,108.36,0,0,0-.6,14.59,33.93,33.93,0,0,0,1.66,10,12.56,12.56,0,0,0,4.12,6A14.1,14.1,0,0,0,850.78,233Zm12.08-36.2q.32-3.12.54-6.36t.18-6.3a42.93,42.93,0,0,0-.46-5.79,18,18,0,0,0-1.39-4.83,9.91,9.91,0,0,0-2.58-3.46,7.69,7.69,0,0,0-4-1.69,6.92,6.92,0,0,0-5.65,1.63,18,18,0,0,0-4.27,5.69,45,45,0,0,0-3.13,8.35q-1.3,4.73-2.24,9.62Z"/><path d="M892.79,233.49q6.38-14.85,11.77-29.84t10.58-30.55l10.11,1.77q-2.84,6.2-5.68,12.72t-5.52,13.05q-2.68,6.53-5.18,12.86t-4.7,12.13q-2.19,5.79-4.05,10.78t-3.25,8.87l-12.62-2.21q0-4.11,0-9.44t-.15-11.52q-.1-6.19-.31-13t-.51-13.86q-.3-7-.76-14.15t-1-13.89L891.56,169q-.4,16.39-.44,32.32t.92,32.06Z"/><path d="M944.25,254.77l1.63-6.34q-1.57,1.16-3.19,2.27a17.12,17.12,0,0,1-3.49,1.85,15.18,15.18,0,0,1-4.1.95,16.82,16.82,0,0,1-5.08-.4,14.13,14.13,0,0,1-9.89-7.64,20,20,0,0,1-1.93-7.13,29.92,29.92,0,0,1,.68-9.11,28.2,28.2,0,0,1,4.29-10.52,20.74,20.74,0,0,1,7.44-6.48,30.83,30.83,0,0,1,10.61-3.09,82.2,82.2,0,0,1,13.81-.36,71.23,71.23,0,0,0,1.6-10.71,22.87,22.87,0,0,0-.51-7,7.64,7.64,0,0,0-2.42-4.08,9.61,9.61,0,0,0-4.1-1.87,14.44,14.44,0,0,0-4.37-.24,25.18,25.18,0,0,0-4.58.87,42,42,0,0,0-4.72,1.67q-2.4,1-4.75,2.16l2.19-10.25q2.4-.37,4.56-.66t4.31-.38a42.29,42.29,0,0,1,4.28,0,29.54,29.54,0,0,1,4.45.62,24.09,24.09,0,0,1,7.84,3,13.66,13.66,0,0,1,4.9,5.25,18.39,18.39,0,0,1,1.92,7.82,42.47,42.47,0,0,1-1.09,10.65q-.12.58-.44,1.95t-.74,3.21l-.9,4-.95,4.16-.88,3.87q-.42,1.82-.68,3-.6,2.8-1.3,6.33t-1.41,7.52q-.72,4-1.46,8.36t-1.44,8.92ZM948,240.48q1.31-5.36,2.73-11.49t3.12-14.06a40,40,0,0,0-11.39.27,18,18,0,0,0-7.34,3,14.15,14.15,0,0,0-4.34,5.29,31.93,31.93,0,0,0-2.34,7.07,28.08,28.08,0,0,0-.68,6.15,15.19,15.19,0,0,0,.79,4.95,9,9,0,0,0,2.13,3.47A6.72,6.72,0,0,0,934,247a9.38,9.38,0,0,0,4.17,0,12.76,12.76,0,0,0,3.57-1.45,19.86,19.86,0,0,0,3.19-2.36Z"/><path d="M1008.23,202.66a35.14,35.14,0,0,0-12.54-1.07,14.91,14.91,0,0,0-9,4q-2.85,10.09-5.43,20.42-1.22,4.88-2.26,9.29T977,244q-1,4.27-1.81,8.6t-1.76,9.06l-9.7-2.42q1.43-4.6,2.68-8.83t2.44-8.44q1.19-4.21,2.34-8.61t2.37-9.27q1.22-4.88,2.31-9.48t2.08-9.12q1-4.52,1.92-9t1.84-9.26l9.75,2.43L990,193.94q-.62,1.91-1.32,4.29a27.24,27.24,0,0,1,5.06-2.75,37.61,37.61,0,0,1,5.92-1.95,34.14,34.14,0,0,1,5.9-.89,16.81,16.81,0,0,1,5,.36Z"/></svg>