<svg id="DISEÑO" xmlns="http://www.w3.org/2000/svg" xmlns:xlink="http://www.w3.org/1999/xlink" viewBox="0 0 175.41 129.1"><defs><clipPath id="clip-path"><rect x="-2365.03" y="-1087.27" width="1946.95" height="2122.47" style="fill:none"/></clipPath></defs><title>WEB_2SUNWYPEZ_Landing</title><path d="M163.24,42.08h0c-7.69-3.5-21-6.54-38.53-8.79-12.1-1.55-30-1.47-53.23.25C51.5,35,31.39,37.44,18,39.21a6.08,6.08,0,0,0-5.3,4.53c-2.35,11-4.88,27.41-3.58,43.12l.06.79c.3,3.68-1.77,13.51,3.57,19.53,2.51,2.82,11.13,11.33,14,13.42C33,125.27,50,120.42,50,120.42c14.67-4.31,32.32-9.75,53.62-9.75h.54c19.67.08,31.05.77,40.61,2.48a6.91,6.91,0,0,0,5.11-1.08,5.43,5.43,0,0,0,2.46-4.35,176.16,176.16,0,0,1,2.53-27C157,68.6,162.12,56.95,166,49.31A5.26,5.26,0,0,0,163.24,42.08Z" style="fill:#fff"/><path d="M161.32,44.83c-5.26-2.39-15.94-5.7-37.36-8.45-26.88-3.45-77.6,2.21-105.58,5.91a2.6,2.6,0,0,0-2.25,2c-2.66,12.45-4.71,28-3.53,42.32.41,4.91.7,9.35,2.19,11.82.84,1.39,4.33,2.13,6.72,2.13,2.22,0,4.95-.15,8.33-.45h.26a2.72,2.72,0,0,1,1.71.59,2,2,0,0,1,.78,1.66c-.41,7.73-.66,14.28.94,15.66,2.18,1.88,12.11-.39,16.07-1.18,15.56-4.57,32.54-9.45,54.31-9.36,18.7.07,30.83.67,41.34,2.55a2.62,2.62,0,0,0,3.15-2.37A181,181,0,0,1,151,80.2c2.21-12.42,7.41-24.29,11.5-32.24A2.27,2.27,0,0,0,161.32,44.83Z"/><path d="M32.1,119.75c-2.37-1.67-2.58-6-2-16.56a.92.92,0,0,0-1.06-.87c-3,.25-5.48.31-7.48.37-4.63.12-7.88-.54-8.61-2.45-.15-.39-.61-.58-.46,0a16.33,16.33,0,0,0,3.13,5.08A147.56,147.56,0,0,0,29,118.16a18.16,18.16,0,0,0,2.91,1.7C31.94,119.89,32.71,120.18,32.1,119.75Z"/><path d="M155.79,118.57a3.36,3.36,0,0,1-5.72-2.41,3.21,3.21,0,0,1,1-2.45,3.3,3.3,0,0,1,2.31-.91,3.37,3.37,0,0,1,2.35,5.78Zm-4.33-4.36a2.79,2.79,0,0,0,0,3.93,2.75,2.75,0,0,0,3.92,0,2.72,2.72,0,0,0,.81-2,2.69,2.69,0,0,0-.81-1.95,2.73,2.73,0,0,0-3.94,0ZM152,118V114.3h1.81a1.8,1.8,0,0,1,.73.19.94.94,0,0,1,.5.89.82.82,0,0,1-.26.68,1.21,1.21,0,0,1-.65.25,1.26,1.26,0,0,1,.53.22,1,1,0,0,1,.33.84v.33a.91.91,0,0,0,0,.11.55.55,0,0,0,0,.11l0,.1h-.93a2.76,2.76,0,0,1-.06-.52,1.73,1.73,0,0,0-.06-.46.45.45,0,0,0-.27-.27,1.09,1.09,0,0,0-.33-.06h-.42V118Zm1.78-3a1.62,1.62,0,0,0-.57-.08h-.24V116h.38a.91.91,0,0,0,.53-.14.51.51,0,0,0,.19-.44A.43.43,0,0,0,153.74,115Z"/><path d="M55.48,64.94l-7.87.69a.6.6,0,0,0-.54.64C47,71,44.64,81.85,43.39,79.35s-1.49-6.07-.89-11.05c0-.3-.14-.48-.43-.45l-4.64.41a.58.58,0,0,0-.54.54c-.6,4.93-1.2,8.37-3,11.25-3.26,5.14.23-12.42,1.53-17.81.07-.35-.1-.58-.44-.55l-7.87.69a.63.63,0,0,0-.5.44c-3.31,10.63-6.07,30.31,3.14,29.52,3.57-.31,6.41-4.4,8.44-10.49.32,5.93,2.13,9.72,6.43,9.34,6.31-.55,11.77-16.4,11.35-25.72C55.89,65.15,55.67,64.92,55.48,64.94Z" style="fill:#fff"/><path d="M77.74,62.87,70,63.64a.64.64,0,0,0-.52.41,25,25,0,0,1-3,10.37l0,.09c-1.83,0-2.56-2.72-1-9.5.13-.42,0-.7-.28-.68l-5.9.6a.47.47,0,0,0-.34.44c-.54,2.31-1.32,7.09-.68,10.75.53,3,2.7,4.94,4.94,4.41l1.63-.39c-1.2,3.91-2.29,7.49-2.38,9.54a.34.34,0,0,0,.36.32l8-.8a.87.87,0,0,0,.62-.52A176.58,176.58,0,0,0,78.11,63C78.12,62.94,78,62.85,77.74,62.87Z" style="fill:#fff"/><path d="M81.28,62.49c-.19.06-.28.12-.31.27-2.44,5.89-4.27,17.28-4.52,26,0,.19.22.27.41.25L84,88.31a.68.68,0,0,0,.61-.68,71,71,0,0,1,1.21-7.32c4.48.09,12.35-2.28,13.27-11.07S90.61,59.75,81.28,62.49Zm10.2,7.81c-.33,2.77-3.38,3.71-5.37,3.5a33.38,33.38,0,0,1,1.14-5.68C89.05,67.82,91.74,68.31,91.48,70.3Z" style="fill:#fff"/><path d="M119.25,60.11c-1.35-.77-3.4-1.08-6.77-.79-4.4.38-12.51,5.68-13.3,15.2-.82,9.78,4.91,11.69,9.61,11.28s6.9-1.64,7.75-2.6c0,0,.09-.11.08-.2l.65-5.48c.06-.45-.26-.72-.73-.48-2.65,1.27-7.09,2.25-7.9-1.28l6.2-.69a.68.68,0,0,0,.54-.54l.45-3.34c0-.3-.14-.53-.44-.5l-6.1.63c1.79-3.75,6.41-3.91,8.46-3.5a.66.66,0,0,0,.78-.61l.84-6.73A.38.38,0,0,0,119.25,60.11Z" style="fill:#fff"/><path d="M142.52,76.15c-11.16-1.83-13.61-.58-13.61-.58l12.47-7.79c.09-.06.14-.16.22-.31.68-2.23,1.77-6.2.8-8.65a.42.42,0,0,0-.36-.17l-18.41.47a.59.59,0,0,0-.43.28c-1.31,2.37-2.14,7.38-1.39,9.6a.37.37,0,0,0,.36.22l10.72-.87-11.68,6.83a.68.68,0,0,1-.19.16c-1.29,2.07-2.14,6.73-1.35,8.76a35.06,35.06,0,0,1,12-1s2.35.2,9.69,1.15a.51.51,0,0,0,.55-.35C142.65,81.65,143.45,78.09,142.52,76.15Z" style="fill:#fff"/><path d="M115.25,29.81a2.65,2.65,0,0,0-2.87-2.24l-6.21.54c-.84.07.77-.39,1.94-1.08a7.11,7.11,0,0,0,2.27-2,3.41,3.41,0,0,0-2.26-5.52,7.54,7.54,0,0,0-2.82.08A25.77,25.77,0,0,0,99,22c-1.37.68-2.63,1.36-3.75,1.95l-1.82,1-.51.3a2.72,2.72,0,0,0-1,1.12l-.44-.26.77-.64c1.09-.91,2.44-2,3.82-3.32a21.11,21.11,0,0,0,4.48-5.44,7.11,7.11,0,0,0,.87-2.89,3.41,3.41,0,0,0-4.85-3.47,7.53,7.53,0,0,0-2.35,1.57,25.82,25.82,0,0,0-4.08,5.39c-.69,1.14-1.32,2.23-1.89,3.22.11-.88.23-1.82.32-2.8a21.11,21.11,0,0,0-.31-7A7.12,7.12,0,0,0,87,7.91,3.41,3.41,0,0,0,81,8.58a7.53,7.53,0,0,0-.7,2.74A25.76,25.76,0,0,0,80.9,18c.28,1.5.58,2.89.84,4.12l.12.56,0-.07c-.7-1.23-1.57-2.77-2.59-4.36a21.13,21.13,0,0,0-4.55-5.38A7.1,7.1,0,0,0,72,11.55a3.41,3.41,0,0,0-4.28,4.15,7.53,7.53,0,0,0,1.12,2.59,25.78,25.78,0,0,0,4.57,5c.63.56,1.24,1.09,1.83,1.59-1.06-.34-2.24-.71-3.51-1.06a21.15,21.15,0,0,0-7-.93,7.12,7.12,0,0,0-2.91.79,3.53,3.53,0,0,0-2,2.95h0a3.55,3.55,0,0,0,1.57,3A7.54,7.54,0,0,0,64,30.78q.55.15,1.19.26H65.1c-7.39.65-12.36,4.12-13.29,9.31a6,6,0,0,0,.89,4.53,3,3,0,0,0-1.33,2l-.76,6.27A2.7,2.7,0,0,0,51,55.07l.25.42.4.28c1.71,1.2,4.72,1.43,6.79,1.43,1.09,0,1.92-.06,2.14-.08,5-.44,9-2.64,11-5.91a8.81,8.81,0,0,0,.62,1,8.41,8.41,0,0,0,7.12,3.3q.56,0,1.17-.05c4.91-.43,8-2.45,10.06-5.3a14.91,14.91,0,0,0,.41,1.63A2.5,2.5,0,0,0,91.75,53a2.68,2.68,0,0,0,1.72.62h.23l6.1-.53h0a2.89,2.89,0,0,0,1.88-.95,2.7,2.7,0,0,0,2,.61l2-.18.07.27,0-.28,4.11-.36A2.72,2.72,0,0,0,112,50.87C113.85,47.87,116.39,36.58,115.25,29.81Zm-44.7,1.57,0,0-.12,0Z" style="fill:#fff"/><path d="M53.21,53.75a.35.35,0,0,1-.06-.27l.75-6.25a.62.62,0,0,1,.86-.51c2.33,1,8.47.48,8.66-1,.08-.83-1.2-.25-3.89-.29-1,0-5.91-.51-5.19-4.83.93-5.16,6.76-7,11.17-7.36,2.66-.23,5.06.19,6.19.92a.37.37,0,0,1,.1.27L71,40.53a.58.58,0,0,1-.78.5,9.8,9.8,0,0,0-5.44,0c-2.47.61-3,2.39-.92,1.7,3.49-1.13,7.32-.52,7,3.76s-4.18,7.65-10.31,8.19C58.08,54.9,54.55,54.7,53.21,53.75Z"/><path d="M74.79,33.43a.47.47,0,0,1,.37-.31l6.26-.55c.27,0,.45.2.32.52-2.05,5.81-2.26,13.79-.15,13.6s3.46-7.67,3.5-14a.48.48,0,0,1,.43-.51l6.33-.55a.32.32,0,0,1,.34.32c-.28,10.27-.85,20-11.71,21C70,53.9,72,40.37,74.79,33.43Z"/><path d="M99.81,50.66l-6.1.53c-.12,0-.28-.06-.29-.17-1.92-5.74.25-15.11,2.16-19.45A.43.43,0,0,1,96,31.3l6.45-.56c.16,0,.28.05.29.21l2.84,10.82a37.37,37.37,0,0,0,.55-10.8.59.59,0,0,1,.5-.6l6.22-.54a.3.3,0,0,1,.34.25c1,6.09-1.35,17-2.9,19.52a.36.36,0,0,1-.3.18l-6.25.55c-.16,0-.32-.05-.33-.21l-2.41-11.8a49.85,49.85,0,0,0-.62,11.79A.59.59,0,0,1,99.81,50.66Z"/><path d="M84.26,8.74a1.23,1.23,0,0,1,1.09.56,4.89,4.89,0,0,1,.83,1.84,19.26,19.26,0,0,1,.24,6.24c-.22,2.44-.58,4.64-.8,6.23l-.07.39a.38.38,0,0,1-.75,0l-.11-.4c-.31-1.57-.82-3.74-1.26-6.12a24.2,24.2,0,0,1-.54-6.09,5.29,5.29,0,0,1,.45-1.89A1.3,1.3,0,0,1,84.26,8.74Z" style="fill-rule:evenodd"/><path d="M70.48,14a1.23,1.23,0,0,1,1.2-.22,4.89,4.89,0,0,1,1.78.94,19.26,19.26,0,0,1,4,4.79c1.32,2.07,2.38,4,3.18,5.42l.18.36a.38.38,0,0,1-.57.48l-.33-.25C78.73,24.43,77,23,75.2,21.42A24.2,24.2,0,0,1,71,16.93a5.29,5.29,0,0,1-.8-1.77A1.3,1.3,0,0,1,70.48,14Z" style="fill-rule:evenodd"/><path d="M62.45,26.6a1.23,1.23,0,0,1,.74-1,4.89,4.89,0,0,1,2-.5,19.26,19.26,0,0,1,6.19.85c2.36.64,4.47,1.38,6,1.87l.37.14a.38.38,0,0,1-.1.74l-.41,0c-1.6,0-3.82.15-6.25.18a24.2,24.2,0,0,1-6.09-.53,5.29,5.29,0,0,1-1.78-.78A1.3,1.3,0,0,1,62.45,26.6Z" style="fill-rule:evenodd"/><path d="M98.83,12.43a1.23,1.23,0,0,1,.43,1.15,4.89,4.89,0,0,1-.61,1.92,19.26,19.26,0,0,1-4,4.8c-1.8,1.67-3.54,3.06-4.76,4.1l-.32.24a.38.38,0,0,1-.58-.47l.18-.37c.82-1.38,1.89-3.33,3.15-5.4A24.2,24.2,0,0,1,96,13.51a5.29,5.29,0,0,1,1.6-1.1A1.3,1.3,0,0,1,98.83,12.43Z" style="fill-rule:evenodd"/><path d="M108.91,22.41a1.23,1.23,0,0,1-.24,1.2,4.89,4.89,0,0,1-1.54,1.31,19.26,19.26,0,0,1-5.94,1.94c-2.41.46-4.62.71-6.21.94l-.4,0a.38.38,0,0,1-.24-.71l.35-.22c1.43-.73,3.37-1.81,5.54-2.89A24.2,24.2,0,0,1,106,21.84a5.29,5.29,0,0,1,1.94-.08A1.3,1.3,0,0,1,108.91,22.41Z" style="fill-rule:evenodd"/><g style="clip-path:url(#clip-path)"><image width="6205" height="4137" transform="translate(-2433.05 -1431.26) scale(0.6)" xlink:href="../RECURSOS/PLAYA-Simulacion en Bolsa.jpg"/></g></svg>