<svg id="DISEÑO" xmlns="http://www.w3.org/2000/svg" xmlns:xlink="http://www.w3.org/1999/xlink" viewBox="0 0 189.71 221.06"><defs><clipPath id="clip-path"><rect x="-2360.24" y="-746.95" width="1946.95" height="2122.47" style="fill:none"/></clipPath></defs><title>WEB_2SUNWYPEZ_Landing</title><path d="M175.09,215.46h-161a8.79,8.79,0,0,1-8.78-8.78V39.9a8.79,8.79,0,0,1,8.78-8.78h161a8.79,8.79,0,0,1,8.78,8.78V206.68A8.78,8.78,0,0,1,175.09,215.46Z" style="fill:#fff"/><rect x="61.48" y="51.49" width="5.3" height="5.3"/><rect x="82.06" y="51.49" width="5.3" height="5.3"/><rect x="92.34" y="51.49" width="5.3" height="5.3"/><rect x="102.63" y="51.49" width="5.3" height="5.3"/><rect x="107.77" y="51.49" width="5.3" height="5.3"/><rect x="112.92" y="51.49" width="5.3" height="5.3"/><rect x="123.2" y="51.49" width="5.3" height="5.3"/><rect x="61.48" y="56.63" width="5.3" height="5.3"/><rect x="66.63" y="56.63" width="5.3" height="5.3"/><rect x="71.77" y="56.63" width="5.3" height="5.3"/><rect x="92.34" y="56.63" width="5.3" height="5.3"/><rect x="107.77" y="56.63" width="5.3" height="5.3"/><rect x="118.06" y="56.63" width="5.3" height="5.3"/><rect x="61.48" y="61.78" width="5.3" height="5.3"/><rect x="82.06" y="61.78" width="5.3" height="5.3"/><rect x="97.49" y="61.78" width="5.3" height="5.3"/><rect x="102.63" y="61.78" width="5.3" height="5.3"/><rect x="112.92" y="61.78" width="5.3" height="5.3"/><rect x="118.06" y="61.78" width="5.3" height="5.3"/><rect x="123.2" y="61.78" width="5.3" height="5.3"/><rect x="71.77" y="66.92" width="5.3" height="5.3"/><rect x="87.2" y="66.92" width="5.3" height="5.3"/><rect x="92.34" y="66.92" width="5.3" height="5.3"/><rect x="102.63" y="66.92" width="5.3" height="5.3"/><rect x="107.77" y="66.92" width="5.3" height="5.3"/><rect x="118.06" y="66.92" width="5.3" height="5.3"/><rect x="66.63" y="72.06" width="5.3" height="5.3"/><rect x="71.77" y="72.06" width="5.3" height="5.3"/><rect x="76.91" y="72.06" width="5.3" height="5.3"/><rect x="82.06" y="72.06" width="5.3" height="5.3"/><rect x="87.2" y="72.06" width="5.3" height="5.3"/><rect x="102.63" y="72.06" width="5.3" height="5.3"/><rect x="112.92" y="72.06" width="5.3" height="5.3"/><rect x="118.06" y="72.06" width="5.3" height="5.3"/><rect x="61.48" y="77.21" width="5.3" height="5.3"/><rect x="66.63" y="77.21" width="5.3" height="5.3"/><rect x="71.77" y="77.21" width="5.3" height="5.3"/><rect x="82.06" y="77.21" width="5.3" height="5.3"/><rect x="87.2" y="77.21" width="5.3" height="5.3"/><rect x="92.34" y="77.21" width="5.3" height="5.3"/><rect x="97.49" y="77.21" width="5.3" height="5.3"/><rect x="102.63" y="77.21" width="5.3" height="5.3"/><rect x="112.92" y="77.21" width="5.3" height="5.3"/><rect x="61.48" y="82.35" width="5.3" height="5.3"/><rect x="71.77" y="82.35" width="5.3" height="5.3"/><rect x="82.06" y="82.35" width="5.3" height="5.3"/><rect x="92.34" y="82.35" width="5.3" height="5.3"/><rect x="102.63" y="82.35" width="5.3" height="5.3"/><rect x="112.92" y="82.35" width="5.3" height="5.3"/><rect x="123.2" y="82.35" width="5.3" height="5.3"/><rect x="61.48" y="87.49" width="5.3" height="5.3"/><rect x="71.77" y="87.49" width="5.3" height="5.3"/><rect x="76.91" y="87.49" width="5.3" height="5.3"/><rect x="82.06" y="87.49" width="5.3" height="5.3"/><rect x="97.49" y="87.49" width="5.3" height="5.3"/><rect x="102.63" y="87.49" width="5.3" height="5.3"/><rect x="118.06" y="87.49" width="5.3" height="5.3"/><rect x="30.62" y="92.64" width="5.3" height="5.3"/><rect x="35.77" y="92.64" width="5.3" height="5.3"/><rect x="40.91" y="92.64" width="5.3" height="5.3"/><rect x="51.2" y="92.64" width="5.3" height="5.3"/><rect x="61.48" y="92.64" width="5.3" height="5.3"/><rect x="66.63" y="92.64" width="5.3" height="5.3"/><rect x="82.06" y="92.64" width="5.3" height="5.3"/><rect x="87.2" y="92.64" width="5.3" height="5.3"/><rect x="92.34" y="92.64" width="5.3" height="5.3"/><rect x="97.49" y="92.64" width="5.3" height="5.3"/><rect x="112.92" y="92.64" width="5.3" height="5.3"/><rect x="128.35" y="92.64" width="5.3" height="5.3"/><rect x="133.49" y="92.64" width="5.3" height="5.3"/><rect x="138.63" y="92.64" width="5.3" height="5.3"/><rect x="154.06" y="92.64" width="5.3" height="5.3"/><rect x="159.2" y="92.64" width="5.3" height="5.3"/><rect x="164.35" y="92.64" width="5.3" height="5.3"/><rect x="25.48" y="97.78" width="5.3" height="5.3"/><rect x="35.77" y="97.78" width="5.3" height="5.3"/><rect x="46.05" y="97.78" width="5.3" height="5.3"/><rect x="66.63" y="97.78" width="5.3" height="5.3"/><rect x="82.06" y="97.78" width="5.3" height="5.3"/><rect x="97.49" y="97.78" width="5.3" height="5.3"/><rect x="107.77" y="97.78" width="5.3" height="5.3"/><rect x="128.35" y="97.78" width="5.3" height="5.3"/><rect x="133.49" y="97.78" width="5.3" height="5.3"/><rect x="138.63" y="97.78" width="5.3" height="5.3"/><rect x="143.78" y="97.78" width="5.3" height="5.3"/><rect x="148.92" y="97.78" width="5.3" height="5.3"/><rect x="154.06" y="97.78" width="5.3" height="5.3"/><rect x="164.35" y="97.78" width="5.3" height="5.3"/><rect x="25.48" y="102.92" width="5.3" height="5.3"/><rect x="40.91" y="102.92" width="5.3" height="5.3"/><rect x="46.05" y="102.92" width="5.3" height="5.3"/><rect x="51.2" y="102.92" width="5.3" height="5.3"/><rect x="56.34" y="102.92" width="5.3" height="5.3"/><rect x="61.48" y="102.92" width="5.3" height="5.3"/><rect x="123.2" y="102.92" width="5.3" height="5.3"/><rect x="128.35" y="102.92" width="5.3" height="5.3"/><rect x="133.49" y="102.92" width="5.3" height="5.3"/><rect x="143.78" y="102.92" width="5.3" height="5.3"/><rect x="148.92" y="102.92" width="5.3" height="5.3"/><rect x="154.06" y="102.92" width="5.3" height="5.3"/><rect x="66.63" y="108.06" width="5.3" height="5.3"/><rect x="128.35" y="108.06" width="5.3" height="5.3"/><rect x="133.49" y="108.06" width="5.3" height="5.3"/><rect x="143.78" y="108.06" width="5.3" height="5.3"/><rect x="148.92" y="108.06" width="5.3" height="5.3"/><rect x="159.2" y="108.06" width="5.3" height="5.3"/><rect x="25.48" y="113.21" width="5.3" height="5.3"/><rect x="30.62" y="113.21" width="5.3" height="5.3"/><rect x="35.77" y="113.21" width="5.3" height="5.3"/><rect x="40.91" y="113.21" width="5.3" height="5.3"/><rect x="46.05" y="113.21" width="5.3" height="5.3"/><rect x="51.2" y="113.21" width="5.3" height="5.3"/><rect x="61.48" y="113.21" width="5.3" height="5.3"/><rect x="123.2" y="113.21" width="5.3" height="5.3"/><rect x="128.35" y="113.21" width="5.3" height="5.3"/><rect x="138.63" y="113.21" width="5.3" height="5.3"/><rect x="148.92" y="113.21" width="5.3" height="5.3"/><rect x="154.06" y="113.21" width="5.3" height="5.3"/><rect x="159.2" y="113.21" width="5.3" height="5.3"/><rect x="164.35" y="113.21" width="5.3" height="5.3"/><rect x="30.62" y="118.35" width="5.3" height="5.3"/><rect x="35.77" y="118.35" width="5.3" height="5.3"/><rect x="46.05" y="118.35" width="5.3" height="5.3"/><rect x="56.34" y="118.35" width="5.3" height="5.3"/><rect x="66.63" y="118.35" width="5.3" height="5.3"/><rect x="118.06" y="118.35" width="5.3" height="5.3"/><rect x="123.2" y="118.35" width="5.3" height="5.3"/><rect x="128.35" y="118.35" width="5.3" height="5.3"/><rect x="133.49" y="118.35" width="5.3" height="5.3"/><rect x="143.78" y="118.35" width="5.3" height="5.3"/><rect x="148.92" y="118.35" width="5.3" height="5.3"/><rect x="159.2" y="118.35" width="5.3" height="5.3"/><rect x="164.35" y="118.35" width="5.3" height="5.3"/><rect x="40.91" y="123.49" width="5.3" height="5.3"/><rect x="51.2" y="123.49" width="5.3" height="5.3"/><rect x="61.48" y="123.49" width="5.3" height="5.3"/><rect x="123.2" y="123.49" width="5.3" height="5.3"/><rect x="128.35" y="123.49" width="5.3" height="5.3"/><rect x="133.49" y="123.49" width="5.3" height="5.3"/><rect x="138.63" y="123.49" width="5.3" height="5.3"/><rect x="159.2" y="123.49" width="5.3" height="5.3"/><rect x="25.48" y="128.64" width="5.3" height="5.3"/><rect x="30.62" y="128.64" width="5.3" height="5.3"/><rect x="40.91" y="128.64" width="5.3" height="5.3"/><rect x="56.34" y="128.64" width="5.3" height="5.3"/><rect x="61.48" y="128.64" width="5.3" height="5.3"/><rect x="133.49" y="128.64" width="5.3" height="5.3"/><rect x="143.78" y="128.64" width="5.3" height="5.3"/><rect x="148.92" y="128.64" width="5.3" height="5.3"/><rect x="164.35" y="128.64" width="5.3" height="5.3"/><rect x="25.48" y="133.78" width="5.3" height="5.3"/><rect x="30.62" y="133.78" width="5.3" height="5.3"/><rect x="35.77" y="133.78" width="5.3" height="5.3"/><rect x="51.2" y="133.78" width="5.3" height="5.3"/><rect x="56.34" y="133.78" width="5.3" height="5.3"/><rect x="66.63" y="133.78" width="5.3" height="5.3"/><rect x="123.2" y="133.78" width="5.3" height="5.3"/><rect x="138.63" y="133.78" width="5.3" height="5.3"/><rect x="143.78" y="133.78" width="5.3" height="5.3"/><rect x="148.92" y="133.78" width="5.3" height="5.3"/><rect x="154.06" y="133.78" width="5.3" height="5.3"/><rect x="164.35" y="133.78" width="5.3" height="5.3"/><rect x="20.34" y="138.92" width="5.3" height="5.3"/><rect x="40.91" y="138.92" width="5.3" height="5.3"/><rect x="56.34" y="138.92" width="5.3" height="5.3"/><rect x="118.06" y="138.92" width="5.3" height="5.3"/><rect x="138.63" y="138.92" width="5.3" height="5.3"/><rect x="143.78" y="138.92" width="5.3" height="5.3"/><rect x="159.2" y="138.92" width="5.3" height="5.3"/><rect x="164.35" y="138.92" width="5.3" height="5.3"/><rect x="20.34" y="144.07" width="5.3" height="5.3"/><rect x="30.62" y="144.07" width="5.3" height="5.3"/><rect x="35.77" y="144.07" width="5.3" height="5.3"/><rect x="40.91" y="144.07" width="5.3" height="5.3"/><rect x="46.05" y="144.07" width="5.3" height="5.3"/><rect x="51.2" y="144.07" width="5.3" height="5.3"/><rect x="56.34" y="144.07" width="5.3" height="5.3"/><rect x="61.48" y="144.07" width="5.3" height="5.3"/><rect x="66.63" y="144.07" width="5.3" height="5.3"/><rect x="133.49" y="144.07" width="5.3" height="5.3"/><rect x="143.78" y="144.07" width="5.3" height="5.3"/><rect x="154.06" y="144.07" width="5.3" height="5.3"/><rect x="20.34" y="149.21" width="5.3" height="5.3"/><rect x="30.62" y="149.21" width="5.3" height="5.3"/><rect x="40.91" y="149.21" width="5.3" height="5.3"/><rect x="56.34" y="149.21" width="5.3" height="5.3"/><rect x="71.77" y="149.21" width="5.3" height="5.3"/><rect x="76.91" y="149.21" width="5.3" height="5.3"/><rect x="87.2" y="149.21" width="5.3" height="5.3"/><rect x="92.34" y="149.21" width="5.3" height="5.3"/><rect x="97.49" y="149.21" width="5.3" height="5.3"/><rect x="118.06" y="149.21" width="5.3" height="5.3"/><rect x="123.2" y="149.21" width="5.3" height="5.3"/><rect x="133.49" y="149.21" width="5.3" height="5.3"/><rect x="159.2" y="149.21" width="5.3" height="5.3"/><rect x="164.35" y="149.21" width="5.3" height="5.3"/><rect x="20.34" y="154.35" width="5.3" height="5.3"/><rect x="30.62" y="154.35" width="5.3" height="5.3"/><rect x="35.77" y="154.35" width="5.3" height="5.3"/><rect x="46.05" y="154.35" width="5.3" height="5.3"/><rect x="51.2" y="154.35" width="5.3" height="5.3"/><rect x="61.48" y="154.35" width="5.3" height="5.3"/><rect x="76.91" y="154.35" width="5.3" height="5.3"/><rect x="82.06" y="154.35" width="5.3" height="5.3"/><rect x="92.34" y="154.35" width="5.3" height="5.3"/><rect x="102.63" y="154.35" width="5.3" height="5.3"/><rect x="123.2" y="154.35" width="5.3" height="5.3"/><rect x="128.35" y="154.35" width="5.3" height="5.3"/><rect x="133.49" y="154.35" width="5.3" height="5.3"/><rect x="138.63" y="154.35" width="5.3" height="5.3"/><rect x="143.78" y="154.35" width="5.3" height="5.3"/><rect x="154.06" y="154.35" width="5.3" height="5.3"/><rect x="61.48" y="159.5" width="5.3" height="5.3"/><rect x="71.77" y="159.5" width="5.3" height="5.3"/><rect x="76.91" y="159.5" width="5.3" height="5.3"/><rect x="82.06" y="159.5" width="5.3" height="5.3"/><rect x="92.34" y="159.5" width="5.3" height="5.3"/><rect x="97.49" y="159.5" width="5.3" height="5.3"/><rect x="112.92" y="159.5" width="5.3" height="5.3"/><rect x="118.06" y="159.5" width="5.3" height="5.3"/><rect x="123.2" y="159.5" width="5.3" height="5.3"/><rect x="143.78" y="159.5" width="5.3" height="5.3"/><rect x="148.92" y="159.5" width="5.3" height="5.3"/><rect x="159.2" y="159.5" width="5.3" height="5.3"/><rect x="164.35" y="159.5" width="5.3" height="5.3"/><rect x="71.77" y="164.64" width="5.3" height="5.3"/><rect x="76.91" y="164.64" width="5.3" height="5.3"/><rect x="87.2" y="164.64" width="5.3" height="5.3"/><rect x="92.34" y="164.64" width="5.3" height="5.3"/><rect x="97.49" y="164.64" width="5.3" height="5.3"/><rect x="112.92" y="164.64" width="5.3" height="5.3"/><rect x="118.06" y="164.64" width="5.3" height="5.3"/><rect x="123.2" y="164.64" width="5.3" height="5.3"/><rect x="133.49" y="164.64" width="5.3" height="5.3"/><rect x="143.78" y="164.64" width="5.3" height="5.3"/><rect x="66.63" y="169.78" width="5.3" height="5.3"/><rect x="71.77" y="169.78" width="5.3" height="5.3"/><rect x="92.34" y="169.78" width="5.3" height="5.3"/><rect x="97.49" y="169.78" width="5.3" height="5.3"/><rect x="118.06" y="169.78" width="5.3" height="5.3"/><rect x="123.2" y="169.78" width="5.3" height="5.3"/><rect x="143.78" y="169.78" width="5.3" height="5.3"/><rect x="148.92" y="169.78" width="5.3" height="5.3"/><rect x="61.48" y="174.93" width="5.3" height="5.3"/><rect x="66.63" y="174.93" width="5.3" height="5.3"/><rect x="71.77" y="174.93" width="5.3" height="5.3"/><rect x="82.06" y="174.93" width="5.3" height="5.3"/><rect x="97.49" y="174.93" width="5.3" height="5.3"/><rect x="112.92" y="174.93" width="5.3" height="5.3"/><rect x="123.2" y="174.93" width="5.3" height="5.3"/><rect x="128.35" y="174.93" width="5.3" height="5.3"/><rect x="133.49" y="174.93" width="5.3" height="5.3"/><rect x="138.63" y="174.93" width="5.3" height="5.3"/><rect x="143.78" y="174.93" width="5.3" height="5.3"/><rect x="148.92" y="174.93" width="5.3" height="5.3"/><rect x="154.06" y="174.93" width="5.3" height="5.3"/><rect x="159.2" y="174.93" width="5.3" height="5.3"/><rect x="164.35" y="174.93" width="5.3" height="5.3"/><rect x="61.48" y="180.07" width="5.3" height="5.3"/><rect x="66.63" y="180.07" width="5.3" height="5.3"/><rect x="71.77" y="180.07" width="5.3" height="5.3"/><rect x="92.34" y="180.07" width="5.3" height="5.3"/><rect x="112.92" y="180.07" width="5.3" height="5.3"/><rect x="118.06" y="180.07" width="5.3" height="5.3"/><rect x="123.2" y="180.07" width="5.3" height="5.3"/><rect x="128.35" y="180.07" width="5.3" height="5.3"/><rect x="138.63" y="180.07" width="5.3" height="5.3"/><rect x="148.92" y="180.07" width="5.3" height="5.3"/><rect x="154.06" y="180.07" width="5.3" height="5.3"/><rect x="61.48" y="185.21" width="5.3" height="5.3"/><rect x="66.63" y="185.21" width="5.3" height="5.3"/><rect x="82.06" y="185.21" width="5.3" height="5.3"/><rect x="92.34" y="185.21" width="5.3" height="5.3"/><rect x="102.63" y="185.21" width="5.3" height="5.3"/><rect x="112.92" y="185.21" width="5.3" height="5.3"/><rect x="118.06" y="185.21" width="5.3" height="5.3"/><rect x="123.2" y="185.21" width="5.3" height="5.3"/><rect x="128.35" y="185.21" width="5.3" height="5.3"/><rect x="133.49" y="185.21" width="5.3" height="5.3"/><rect x="138.63" y="185.21" width="5.3" height="5.3"/><rect x="143.78" y="185.21" width="5.3" height="5.3"/><rect x="148.92" y="185.21" width="5.3" height="5.3"/><rect x="154.06" y="185.21" width="5.3" height="5.3"/><rect x="159.2" y="185.21" width="5.3" height="5.3"/><rect x="71.77" y="190.36" width="5.3" height="5.3"/><rect x="76.91" y="190.36" width="5.3" height="5.3"/><rect x="82.06" y="190.36" width="5.3" height="5.3"/><rect x="87.2" y="190.36" width="5.3" height="5.3"/><rect x="92.34" y="190.36" width="5.3" height="5.3"/><rect x="97.49" y="190.36" width="5.3" height="5.3"/><rect x="102.63" y="190.36" width="5.3" height="5.3"/><rect x="123.2" y="190.36" width="5.3" height="5.3"/><rect x="143.78" y="190.36" width="5.3" height="5.3"/><rect x="148.92" y="190.36" width="5.3" height="5.3"/><rect x="159.2" y="190.36" width="5.3" height="5.3"/><rect x="71.77" y="195.5" width="5.3" height="5.3"/><rect x="76.91" y="195.5" width="5.3" height="5.3"/><rect x="102.63" y="195.5" width="5.3" height="5.3"/><rect x="107.77" y="195.5" width="5.3" height="5.3"/><rect x="118.06" y="195.5" width="5.3" height="5.3"/><rect x="143.78" y="195.5" width="5.3" height="5.3"/><rect x="148.92" y="195.5" width="5.3" height="5.3"/><path d="M11.79,219.29H177.26c5.44,0,10.88-5.44,10.88-14V12.65c0-5.44-4.66-10.88-10.1-10.88H12.57c-5.44,0-10.1,4.66-10.88,10.1V208.41C.92,214.63,5.58,219.29,11.79,219.29ZM9.46,48.38a7.78,7.78,0,0,1,7.77-7.77H172.6a7.78,7.78,0,0,1,7.77,7.77V203.75a7.78,7.78,0,0,1-7.77,7.77H17.23a7.78,7.78,0,0,1-7.77-7.77Z"/><path d="M20.34,51.49v36h36v-36ZM51.2,82.35H25.48V56.63H51.2Z"/><rect x="30.62" y="61.78" width="15.43" height="15.43"/><path d="M133.49,51.49v36h36v-36Zm30.86,30.86H138.63V56.63h25.72Z"/><rect x="143.78" y="61.78" width="15.43" height="15.43"/><path d="M20.34,164.64v36h36v-36ZM51.2,195.5H25.48V169.78H51.2Z"/><rect x="30.62" y="174.93" width="15.43" height="15.43"/><path d="M34.2,24.53a5.42,5.42,0,0,1-3.6,1h-3v5.16h-3V16.37H30.8a5,5,0,0,1,3.41,1.12,4.31,4.31,0,0,1,1.26,3.44A4.49,4.49,0,0,1,34.2,24.53ZM31.9,19.35a2.38,2.38,0,0,0-1.6-.48h-2.7v4.22h2.7a2.3,2.3,0,0,0,1.6-.51,2.11,2.11,0,0,0,.57-1.63A1.89,1.89,0,0,0,31.9,19.35Z" style="fill:#fff"/><path d="M47.86,16.74a3.61,3.61,0,0,1,1.35,1A4.65,4.65,0,0,1,49.93,19a4,4,0,0,1,.27,1.51,4.37,4.37,0,0,1-.51,2,2.9,2.9,0,0,1-1.7,1.4A2.62,2.62,0,0,1,49.38,25a4.68,4.68,0,0,1,.41,2.25v1a7.38,7.38,0,0,0,.07,1.33,1.18,1.18,0,0,0,.55.82v.35H47.1c-.09-.32-.16-.57-.2-.76a7.18,7.18,0,0,1-.12-1.24l0-1.33a2.72,2.72,0,0,0-.48-1.83,2.42,2.42,0,0,0-1.7-.46H41.65v5.62H38.73V16.35h6.86A7.41,7.41,0,0,1,47.86,16.74Zm-6.19,2.13v3.87H44.9a3.35,3.35,0,0,0,1.44-.23,1.61,1.61,0,0,0,.85-1.61,1.81,1.81,0,0,0-.82-1.76A2.83,2.83,0,0,0,45,18.89l-3.32,0Z" style="fill:#fff"/><path d="M64.92,29.46a6.26,6.26,0,0,1-4.7,1.67,6.23,6.23,0,0,1-4.7-1.67,7.75,7.75,0,0,1-2.18-5.92c0-2.62.73-4.61,2.18-5.92a6.26,6.26,0,0,1,4.7-1.67,6.23,6.23,0,0,1,4.7,1.67c1.45,1.31,2.16,3.3,2.16,5.92A7.65,7.65,0,0,1,64.92,29.46ZM63,27.28a5.91,5.91,0,0,0,1-3.74,6,6,0,0,0-1-3.74,3.4,3.4,0,0,0-2.84-1.31,3.48,3.48,0,0,0-2.84,1.31,5.81,5.81,0,0,0-1.06,3.74,5.84,5.84,0,0,0,1.06,3.74,3.48,3.48,0,0,0,2.84,1.31A3.38,3.38,0,0,0,63,27.28Z" style="fill:#fff"/><path d="M79.71,16.39H84V30.75h-2.8V21c0-.28,0-.67,0-1.17s0-.89,0-1.17l-2.71,12H75.63l-2.7-12c0,.27,0,.66,0,1.17s0,.89,0,1.17v9.72h-2.8V16.39h4.36l2.61,11.3Z" style="fill:#fff"/><path d="M98.65,29.46a7.46,7.46,0,0,1-9.4,0,7.75,7.75,0,0,1-2.18-5.92c0-2.62.73-4.61,2.18-5.92a7.46,7.46,0,0,1,9.4,0c1.45,1.31,2.16,3.3,2.16,5.92A7.65,7.65,0,0,1,98.65,29.46Zm-1.86-2.18a5.91,5.91,0,0,0,1-3.74,6,6,0,0,0-1-3.74A3.4,3.4,0,0,0,94,18.48a3.48,3.48,0,0,0-2.84,1.31,5.81,5.81,0,0,0-1.06,3.74,5.84,5.84,0,0,0,1.06,3.74A3.48,3.48,0,0,0,94,28.59,3.43,3.43,0,0,0,96.79,27.28Z" style="fill:#fff"/><path d="M114.35,16.39v2.54h-4.29V30.73h-3V18.92h-4.31V16.39Z" style="fill:#fff"/><path d="M119.63,30.73h-3V16.37h3Z" style="fill:#fff"/><path d="M134.3,29.46a7.46,7.46,0,0,1-9.4,0,7.75,7.75,0,0,1-2.18-5.92c0-2.62.73-4.61,2.18-5.92a7.46,7.46,0,0,1,9.4,0c1.45,1.31,2.16,3.3,2.16,5.92A7.65,7.65,0,0,1,134.3,29.46Zm-1.88-2.18a5.91,5.91,0,0,0,1-3.74,6,6,0,0,0-1-3.74,3.4,3.4,0,0,0-2.84-1.31,3.48,3.48,0,0,0-2.84,1.31,5.81,5.81,0,0,0-1.06,3.74,5.84,5.84,0,0,0,1.06,3.74,3.48,3.48,0,0,0,2.84,1.31A3.4,3.4,0,0,0,132.42,27.28Z" style="fill:#fff"/><path d="M139.51,16.39h3.14l5.69,10v-10h2.8V30.75h-3L142.3,20.57V30.75h-2.8V16.39Z" style="fill:#fff"/><path d="M156.93,26.3a2.91,2.91,0,0,0,.55,1.47,3.2,3.2,0,0,0,2.55.89,5.33,5.33,0,0,0,1.76-.23,1.67,1.67,0,0,0,1.28-1.67,1.24,1.24,0,0,0-.62-1.1,7,7,0,0,0-2-.67l-1.56-.34a10,10,0,0,1-3.16-1.1,3.48,3.48,0,0,1-1.45-3.1,4.15,4.15,0,0,1,1.42-3.21A6,6,0,0,1,159.87,16a6.44,6.44,0,0,1,3.92,1.21,4.28,4.28,0,0,1,1.7,3.49h-2.89a2.08,2.08,0,0,0-1.15-1.84,3.89,3.89,0,0,0-1.79-.35,3.49,3.49,0,0,0-1.9.46,1.46,1.46,0,0,0-.71,1.31,1.23,1.23,0,0,0,.69,1.15,8.36,8.36,0,0,0,1.92.6l2.52.6a6.4,6.4,0,0,1,2.48,1,3.51,3.51,0,0,1,1.28,2.93,4.13,4.13,0,0,1-1.53,3.26,6.4,6.4,0,0,1-4.29,1.29,7.09,7.09,0,0,1-4.47-1.28A4.24,4.24,0,0,1,154,26.32h2.91v0Z" style="fill:#fff"/><path d="M77.8,123.95H81.5L87,140l5.43-16.09h3.67v19H93.6V131.74c0-.39,0-1,0-1.93s0-1.86,0-2.89l-5.43,16H85.65l-5.48-16v.59c0,.46,0,1.17,0,2.13s0,1.65,0,2.11V143H77.78v-19Z"/><path d="M99.66,123.95h13.8v2.32h-11.3v5.78h10.43v2.2H102.16v6.46h11.49V143h-14v-19Z"/><path d="M78.52,117.46a2,2,0,0,0,.39,1,2.25,2.25,0,0,0,1.79.62,4,4,0,0,0,1.24-.16,1.18,1.18,0,0,0,.9-1.17.87.87,0,0,0-.44-.78,5,5,0,0,0-1.4-.48l-1.08-.23a6.38,6.38,0,0,1-2.2-.78,2.46,2.46,0,0,1-1-2.18,2.93,2.93,0,0,1,1-2.25,4.19,4.19,0,0,1,2.93-.89,4.45,4.45,0,0,1,2.75.85,3,3,0,0,1,1.19,2.45h-2a1.44,1.44,0,0,0-.82-1.29,2.89,2.89,0,0,0-1.26-.25,2.46,2.46,0,0,0-1.33.32,1,1,0,0,0-.5.92.85.85,0,0,0,.5.8,5.17,5.17,0,0,0,1.33.41l1.77.41a4.45,4.45,0,0,1,1.74.73,2.46,2.46,0,0,1,.9,2.06,2.87,2.87,0,0,1-1.06,2.29,4.53,4.53,0,0,1-3,.9,4.88,4.88,0,0,1-3.12-.9,3,3,0,0,1-1.14-2.47h2v.05Z"/><path d="M87,111.55a4.68,4.68,0,0,1,6.76.43,3.66,3.66,0,0,1,.69,1.88H92.36a3,3,0,0,0-.51-1.1,2.29,2.29,0,0,0-3.44.27,4.59,4.59,0,0,0-.66,2.62,3.93,3.93,0,0,0,.69,2.54,2.13,2.13,0,0,0,1.74.85,2,2,0,0,0,1.65-.73,3,3,0,0,0,.51-1.17h2.09A4.51,4.51,0,0,1,93,119.82a4,4,0,0,1-2.86,1,4.21,4.21,0,0,1-3.37-1.4,5.65,5.65,0,0,1-1.22-3.83A5.75,5.75,0,0,1,87,111.55Z"/><path d="M98.76,110.49h2.38l3.56,10.07h-2.27l-.66-2.08H98.07l-.67,2.08h-2.2Zm-.14,6.28h2.57l-1.28-4Z"/><path d="M105.68,110.49h2.2l4,7v-7h2v10.07h-2.11l-4.1-7.15v7.15h-2l0-10.07Z"/><g style="clip-path:url(#clip-path)"><image width="6205" height="4137" transform="translate(-2428.26 -1090.94) scale(0.6)" xlink:href="../RECURSOS/PLAYA-Simulacion en Bolsa.jpg"/></g></svg>