<svg id="DISEÑO" xmlns="http://www.w3.org/2000/svg" xmlns:xlink="http://www.w3.org/1999/xlink" viewBox="0 0 277.66 53.98"><defs><clipPath id="clip-path"><rect x="-2316.27" y="-511.48" width="1946.95" height="2122.47" style="fill:none"/></clipPath></defs><title>WEB_2SUNWYPEZ_Landing</title><path d="M250.67,54A27,27,0,0,1,231.59,7.9a27,27,0,0,1,38.17,38.17A26.81,26.81,0,0,1,250.67,54Zm0-52.41A25.42,25.42,0,1,0,276.09,27,25.45,25.45,0,0,0,250.67,1.57Z"/><path d="M239.31,15.72a2.44,2.44,0,0,1,.83-1.91,3.46,3.46,0,0,1,4.29,0,2.46,2.46,0,0,1,.83,1.9,2.5,2.5,0,0,1-.84,1.93,3.05,3.05,0,0,1-2.14.77,3,3,0,0,1-2.13-.78A2.51,2.51,0,0,1,239.31,15.72Zm.38,23.22V21.39h5.11V38.94Z"/><path d="M265,38.94h-5.1V29.15q0-4.25-3.06-4.25A3.06,3.06,0,0,0,254.45,26a4.31,4.31,0,0,0-1,2.9v10h-5.13V21.39h5.13v2.79h.06A6.19,6.19,0,0,1,259.19,21Q265,21,265,28.2Z"/><path d="M177.55,54A27,27,0,0,1,158.47,7.9a27,27,0,0,1,38.17,38.17A26.81,26.81,0,0,1,177.55,54Zm0-52.41A25.42,25.42,0,1,0,203,27,25.45,25.45,0,0,0,177.55,1.57Z"/><path d="M164.57,16c3.69,4,7.71,6.65,12.45,6.39-.07-6.06,4.42-9.56,10.77-5.25l3.57-1.55-2,3,2.76-.47-2.76,2.56C188.66,37.87,173.85,42,163,36.38c3.65-.23,6.52-.93,8.21-2.36a6.89,6.89,0,0,1-5.11-4.24l2.22-.13c-2.44-.83-3.85-2.89-4.44-5.92l2.36.2C163.91,22,163.62,19.21,164.57,16Z"/><path d="M109,28.25V23.54H104.1V21.12q0-3.59,3.24-3.59a6.67,6.67,0,0,1,2.44.51v-5a11,11,0,0,0-3.28-.41,9,9,0,0,0-6.31,2.21,7.62,7.62,0,0,0-2.4,5.9v2.77H94.18v4.71h3.61V41.14a17,17,0,0,0,6.31-.39V28.25Z"/><path d="M102.27,54A27,27,0,0,1,83.19,7.9a27,27,0,0,1,38.17,38.17A26.81,26.81,0,0,1,102.27,54Zm0-52.41A25.42,25.42,0,1,0,127.69,27,25.45,25.45,0,0,0,102.27,1.57Z"/><circle cx="34.29" cy="19.74" r="1.96"/><path d="M27,19.74A7.25,7.25,0,1,0,34.29,27,7.25,7.25,0,0,0,27,19.74ZM27,31.6A4.61,4.61,0,1,1,31.66,27,4.61,4.61,0,0,1,27,31.6Z"/><path d="M32.94,13.12H21.15a8,8,0,0,0-8,8V32.88a8,8,0,0,0,8,8H32.94a8,8,0,0,0,8-8V21.09A8,8,0,0,0,32.94,13.12Zm5.28,19.81A5.24,5.24,0,0,1,33,38.17H21.1a5.24,5.24,0,0,1-5.24-5.24V21a5.24,5.24,0,0,1,5.24-5.24H33A5.24,5.24,0,0,1,38.22,21Z"/><path d="M27,54A27,27,0,0,1,7.9,7.9,27,27,0,0,1,46.07,46.07,26.81,26.81,0,0,1,27,54ZM27,1.57A25.42,25.42,0,1,0,52.41,27,25.45,25.45,0,0,0,27,1.57Z"/><g style="clip-path:url(#clip-path)"><image width="6205" height="4137" transform="translate(-2384.29 -855.47) scale(0.6)" xlink:href="../RECURSOS/PLAYA-Simulacion en Bolsa.jpg"/></g></svg>